<svg xmlns="http://www.w3.org/2000/svg"><defs> <path id="stumbleupon-path-1" d="M0,0.0749333333 L31.9250667,0.0749333333 L31.9250667,31.984 L0,31.984"/> </defs><symbol viewBox="0 0 24 24" id="icon-add"><path d="M19 13h-6v6h-2v-6H5v-2h6V5h2v6h6v2z"/></symbol><symbol viewBox="0 0 36 36" id="icon-arrow-circle-down"> <style type="text/css"> .st0{fill:#2967C5;} </style> <path class="st0" d="M18,0.4C8.3,0.4,0.4,8.3,0.4,18S8.3,35.6,18,35.6S35.6,27.7,35.6,18S27.7,0.4,18,0.4z M29.3,19.4L18.4,30.4
	c-0.1,0.1-0.2,0.1-0.4,0.1s-0.3-0.1-0.4-0.1L6.7,19.4C6.3,19,6.1,18.5,6.1,18s0.2-1,0.6-1.4c0.8-0.8,2.1-0.8,2.8,0l6.5,6.5V7.5
	c0-1.1,0.9-2,2-2c1.1,0,2,0.9,2,2v15.6l6.5-6.5c0.8-0.8,2.1-0.8,2.8,0C30.1,17.4,30.1,18.6,29.3,19.4z"/> </symbol><symbol viewBox="0 0 36 36" id="icon-arrow-circle-right"> <style type="text/css"> .st0{fill:#2967C5;} </style> <path class="st0" d="M0.4,18c0,9.7,7.9,17.6,17.6,17.6S35.6,27.7,35.6,18S27.7,0.4,18,0.4S0.4,8.3,0.4,18z M19.4,6.7l10.9,10.9
	c0.1,0.1,0.1,0.2,0.1,0.4s-0.1,0.3-0.1,0.4L19.4,29.3c-0.4,0.4-0.9,0.6-1.4,0.6s-1-0.2-1.4-0.6c-0.8-0.8-0.8-2.1,0-2.8l6.5-6.5H7.5
	c-1.1,0-2-0.9-2-2c0-1.1,0.9-2,2-2h15.6l-6.5-6.5c-0.8-0.8-0.8-2.1,0-2.8C17.4,5.9,18.6,5.9,19.4,6.7z"/> </symbol><symbol viewBox="0 0 36 36" id="icon-arrow-down"> <path d="M16.5 6v18.26l-8.38-8.38-2.12 2.12 12 12 12-12-2.12-2.12-8.38 8.38v-18.26h-3z"/> </symbol><symbol viewBox="0 0 1056 1024" id="icon-call">   <path d="M712.488 1024.008c-171.745 0-348.915-98.289-474.75-224.75-175.918-176.545-295.702-453.256-167.571-674.041 7.172-10.663 19.193-17.584 32.831-17.584 21.783 0 39.441 17.658 39.441 39.441 0 6.49-1.568 12.614-4.345 18.014l0.104-0.221c-107.054 184.266 0 423.206 155.259 578.256s396.495 266.278 581.387 159.224c5.61-3.235 12.338-5.144 19.512-5.144 21.858 0 39.577 17.719 39.577 39.577 0 14.684-7.997 27.5-19.873 34.331l-0.192 0.102c-56.958 33.205-125.376 52.808-198.373 52.808-1.056 0-2.112-0.004-3.166-0.012l0.161 0.001z"/> <path d="M974.383 914.868c-21.747-0.198-39.299-17.873-39.299-39.648 0-10.81 4.326-20.61 11.342-27.763l-0.006 0.006c9.579-9.59 15.503-22.832 15.503-37.458s-5.924-27.868-15.503-37.459v0l-68.656-68.448c-9.579-9.517-22.78-15.399-37.354-15.399s-27.775 5.882-37.357 15.402l0.003-0.003c-56.135 56.135-134.391 116.027-241.444 80.968s-270.451-198.247-305.718-305.092 24.833-185.1 80.968-241.236c9.529-9.613 15.417-22.848 15.417-37.458s-5.888-27.846-15.421-37.462l0.004 0.004-68.656-69.491c-9.72-9.288-22.922-15.005-37.458-15.005s-27.738 5.717-37.479 15.025l0.021-0.020c-6.983 6.382-16.319 10.291-26.568 10.291-21.783 0-39.441-17.658-39.441-39.441 0-10.249 3.909-19.585 10.319-26.599l-0.027 0.030c23.836-23.868 56.782-38.634 93.176-38.634s69.341 14.765 93.175 38.632l0.001 0.001 68.239 68.656c23.868 23.836 38.634 56.782 38.634 93.176s-14.765 69.341-38.632 93.175l-0.001 0.001c-51.753 51.753-82.012 98.915-62.604 160.893 27.755 83.473 170.91 227.88 255.426 255.635 62.604 20.868 109.349-10.017 161.102-62.604 23.802-23.856 56.713-38.616 93.072-38.616s69.27 14.759 93.069 38.613l0.003 0.003 68.656 68.448c23.818 23.859 38.547 56.797 38.547 93.176s-14.729 69.318-38.549 93.178l0.002-0.002c-6.703 7.169-15.999 11.842-26.385 12.515l-0.117 0.006z"/> </symbol><symbol viewBox="0 0 1056 1024" id="icon-cart">   <path d="M904.445 698.812h-576.549c-0.006 0-0.014 0-0.022 0-15.297 0-28.273-9.938-32.823-23.71l-0.070-0.244-158.354-484.937-97.28-36.571c-13.178-5.090-22.355-17.656-22.355-32.366 0-19.113 15.494-34.607 34.607-34.607 4.403 0 8.614 0.822 12.488 2.322l-0.236-0.080 112.64 42.606c9.801 3.762 17.315 11.575 20.592 21.333l0.071 0.244 155.246 476.891h524.069l83.566-347.429h-655.543c-19.087 0-34.56-15.473-34.56-34.56s15.473-34.56 34.56-34.56h699.977c0.003 0 0.006 0 0.010 0 10.949 0 20.702 5.118 26.998 13.093l0.055 0.073c4.66 5.881 7.476 13.409 7.476 21.594 0 2.782-0.325 5.489-0.94 8.083l0.047-0.237-100.023 415.817c-3.537 15.609-17.229 27.11-33.631 27.246h-0.015z"/> <path d="M859.645 491.087h-496.274c-19.087 0-34.56-15.473-34.56-34.56s15.473-34.56 34.56-34.56h496.274c19.087 0 34.56 15.473 34.56 34.56s-15.473 34.56-34.56 34.56v0z"/> <path d="M373.428 937.624c-54.534 0-98.743-44.209-98.743-98.743s44.209-98.743 98.743-98.743c54.534 0 98.743 44.209 98.743 98.743v0c0 54.534-44.209 98.743-98.743 98.743v0zM373.428 809.624c-16.461 0-29.806 13.344-29.806 29.806s13.344 29.806 29.806 29.806c16.461 0 29.806-13.344 29.806-29.806v0c0.003-0.163 0.005-0.356 0.005-0.549 0-16.461-13.344-29.806-29.806-29.806-0.002 0-0.004 0-0.005 0v0z"/> <path d="M828.376 937.624c-54.455-0.104-98.56-44.273-98.56-98.743 0-54.534 44.209-98.743 98.743-98.743s98.743 44.209 98.743 98.743v0c0 0 0 0 0 0 0 54.534-44.209 98.743-98.743 98.743-0.064 0-0.129 0-0.193 0h0.010zM828.376 809.624c-16.459 0.003-29.801 13.346-29.801 29.806s13.344 29.806 29.806 29.806 29.806-13.344 29.806-29.806c0-0.193-0.002-0.385-0.005-0.577v0.029c0-0.054 0.001-0.119 0.001-0.183 0-16.36-13.263-29.623-29.623-29.623-0.064 0-0.129 0-0.193 0.001h0.010z"/> </symbol><symbol viewBox="0 0 12 8" id="icon-chevron-down"><path d="M6 6.174l5.313-4.96.23-.214.457.427-.23.214-5.51 5.146L6.03 7 6 6.972 5.97 7l-.23-.214L.23 1.64 0 1.428.458 1l.23.214L6 6.174z" stroke-linecap="square" fill-rule="evenodd"/></symbol><symbol viewBox="0 0 24 24" id="icon-chevron-left"><path d="M15.41 7.41L14 6l-6 6 6 6 1.41-1.41L10.83 12z"/></symbol><symbol viewBox="0 0 24 24" id="icon-chevron-right"><path d="M10 6L8.59 7.41 13.17 12l-4.58 4.59L10 18l6-6z"/></symbol><symbol viewBox="0 0 24 24" id="icon-close"><path d="M19 6.41L17.59 5 12 10.59 6.41 5 5 6.41 10.59 12 5 17.59 6.41 19 12 13.41 17.59 19 19 17.59 13.41 12z"/></symbol><symbol viewBox="0 0 1056 1024" id="icon-coupens">   <path d="M1001.547 267.911c-21.814 0-39.497 17.683-39.497 39.497v0 48.483c-70.557 18.433-121.783 81.602-121.783 156.735s51.226 138.301 120.657 156.484l1.126 0.251v129.358h-566.335c2.22-5.249 3.523-11.35 3.553-17.752v-0.011c-0.075-13.138-5.41-25.017-14.003-33.647l0.002 0.002c-8.734-8.247-20.546-13.316-33.541-13.316s-24.807 5.069-33.565 13.338l0.024-0.022c-8.402 8.614-13.584 20.403-13.584 33.401 0 0.086 0 0.172 0.001 0.257v-0.013c0.029 6.413 1.332 12.514 3.669 18.074l-0.116-0.311h-214.204v-129.358c70.83-18.327 122.324-81.603 122.462-156.928v-0.016c-0.183-75.223-51.686-138.367-121.34-156.281l-1.122-0.245v-129.985h213.577c-2.246 5.221-3.553 11.298-3.553 17.68 0 0.029 0 0.059 0 0.088v-0.005c-0.005 0.251-0.008 0.547-0.008 0.844 0 25.622 20.771 46.393 46.393 46.393 0.297 0 0.593-0.003 0.888-0.008l-0.044 0.001c0.124 0.001 0.271 0.002 0.418 0.002 25.969 0 47.020-21.052 47.020-47.020 0-0.074 0-0.148-0.001-0.222v0.011c-0.006-6.411-1.311-12.516-3.667-18.067l0.115 0.304h606.041c21.814 0 39.497-17.683 39.497-39.497s-17.683-39.497-39.497-39.497v0h-946.678c-0.062 0-0.136-0.001-0.21-0.001-21.698 0-39.288 17.59-39.288 39.288 0 0.074 0 0.147 0.001 0.221v-0.011 203.128c0 0.062-0.001 0.136-0.001 0.21 0 21.698 17.59 39.288 39.288 39.288 0.074 0 0.147 0 0.221-0.001h-0.011c46.166 0 83.592 37.425 83.592 83.592s-37.425 83.592-83.592 83.592v0c-0.066 0-0.145-0.001-0.223-0.001-21.331 0-38.692 17-39.273 38.19l-0.001 0.054v203.337c0 0 0 0 0 0.001 0 21.698 17.59 39.288 39.288 39.288 0.073 0 0.147 0 0.22-0.001h947.085c0 0 0 0 0.001 0 21.74 0 39.378-17.565 39.497-39.277v-203.348c-0.119-21.724-17.756-39.288-39.497-39.288 0 0 0 0-0.001 0v0c-41.976-4.852-74.261-40.191-74.261-83.069s32.285-78.217 73.872-83.033l0.388-0.037c21.814 0 39.497-17.683 39.497-39.497v0-82.129c0-21.814-17.683-39.497-39.497-39.497v0z"/> <path d="M351.829 375.326c-26.199 0-47.438 21.239-47.438 47.438s21.239 47.438 47.438 47.438c26.199 0 47.438-21.239 47.438-47.438 0-0.073 0-0.147-0.001-0.22v0.011c0 0 0 0 0 0 0-26.084-21.145-47.229-47.229-47.229-0.073 0-0.147 0-0.22 0.001h0.011z"/> <path d="M351.829 554.213c-26.199 0-47.438 21.239-47.438 47.438s21.239 47.438 47.438 47.438c26.199 0 47.438-21.239 47.438-47.438v0c0-26.199-21.239-47.438-47.438-47.438v0z"/> </symbol><symbol viewBox="0 0 1024 1024" id="icon-deal">   <path d="M1014.896 217.188c-5.688-4-12.98-4.98-19.52-2.562l-173.916 63.25c-21.562 7.834-38.73 23.626-48.334 44.458-1.8 3.906-2.982 7.964-4.166 12.016-29.864-8.49-85.364-26.222-140.52-54.64-83.346-42.946-147.020-21.734-201.632 19.922-27.672 0.544-65.812 3.816-103.304 7.12-23.916 2.11-46.518 4.052-64.846 5.17-0.45-11.008-3.026-21.932-7.778-32.252-9.604-20.834-26.77-36.626-48.334-44.458l-173.92-63.254c-6.52-2.396-13.854-1.416-19.52 2.562-5.71 4.002-9.106 10.522-9.106 17.48v426.666c0 11.792 9.542 21.334 21.334 21.334h62.312c26.502 0 51.158-12.5 67.096-32.684 8.49 6.456 18.546 14.016 29.092 21.934 24.896 18.73 52.146 39.166 64.104 49.188 79.438 66.5 174.938 138.312 193.958 150.812 17.77 11.666 49.77 24.084 74.104 24.084 9.52 0 33.5 0 50.334-14.23 17.354 6.812 36.062 6.48 53.458-1.188 17.354-7.646 31.396-22.062 39.562-39.584 16.666 3.416 35.812 0.916 53.166-7.792 16.27-8.146 28.25-20.48 34.666-34.896 15.416 1.416 31.876-3.604 46.604-14.876 21.044-16.086 30.68-39.842 27.954-63.278l54.114-29.938c15.848 21.482 41.036 35.112 68.494 35.112h62.312c11.792 0 21.334-9.542 21.334-21.334v-426.662c0.002-6.96-3.394-13.48-9.102-17.48zM123.604 569.646c-6.208 16.562-22.27 27.688-39.958 27.688h-40.98v-374.876l145.292 52.834c10.792 3.938 19.376 11.834 24.166 22.25 4.812 10.416 5.23 22.084 1.208 32.812l-89.728 239.292zM763.896 706.876c-7.23 5.542-17.354 8.626-21.854 4.126-0.23-0.23-0.586-0.208-0.822-0.428-0.408-0.378-0.61-0.888-1.052-1.24-15.25-12.042-83.584-81.958-125.812-126-8.146-8.52-21.666-8.834-30.146-0.646-8.52 8.146-8.812 21.646-0.646 30.146 9.912 10.346 89.48 93.216 121.326 122.198-2.378 9.368-11.062 15.152-15.472 17.364-13.666 6.854-27.916 5.708-33.25 0.75-0.158-0.148-0.394-0.14-0.558-0.284-0.26-0.232-0.376-0.558-0.652-0.778-25.584-20.438-89.77-88.646-104.292-104.438-7.98-8.688-21.458-9.23-30.146-1.27-8.666 7.98-9.25 21.48-1.27 30.146 0.7 0.758 63.604 68.612 98.934 100.13-3.472 9.976-10.546 18.238-19.622 22.244-6.698 2.976-17.174 4.502-29.144-4.344-30.636-25.976-92.118-91.422-104.21-104.364-8.020-8.626-21.562-9.062-30.146-1.020-8.604 8.042-9.062 21.542-1.020 30.146 14.336 15.344 56.71 60.256 88.922 90.666-3.598 0.438-7.376 0.688-10.964 0.688-14.126 0-38.396-9.020-50.666-17.084-14.958-9.834-108.876-79.916-189.98-147.834-12.27-10.292-40.27-31.354-65.896-50.604-13.734-10.31-26.388-19.816-35.714-26.99l79.876-213.032c20.734-0.906 48.376-3.296 77.63-5.876 16.546-1.458 33.11-2.88 48.938-4.112-24.328 24.974-60.498 69.704-55.73 111.632 2.188 19.084 12.626 34.98 30.23 45.98 34.854 21.812 99.376 3.52 130.458-34.708 20.062-2.896 33.626-8.020 48.416-15.354 25 23.5 58.52 51.126 93.73 80.146 61.292 50.5 130.77 107.75 149.146 139.854 10.228 17.856-3.958 30.69-8.542 34.19zM800.494 638.268c-28.424-38.024-90.040-88.898-150.078-138.372-40.020-32.98-77.812-64.126-102-88.312-6.666-6.626-16.896-8.126-25.146-3.73-21.73 11.646-31.52 16.458-56.062 18.916-6.542 0.666-12.416 4.292-15.916 9.854-16.73 26.542-63.23 39.166-77.98 29.958-8.376-5.25-10-10.584-10.458-14.646-2.062-18.146 16.312-49.562 46.792-80.062 75.48-75.48 129.438-90.25 199.25-54.25 66.328 34.198 131.79 53.534 159.27 60.838 0.794 3.196 1.37 6.424 2.542 9.558l82.834 220.902-53.048 29.346zM981.334 640h-40.98c-17.688 0-33.75-11.126-39.958-27.688l-89.73-239.27c-4.020-10.75-3.604-22.416 1.208-32.834 4.792-10.416 13.376-18.312 24.166-22.25l145.292-52.834v374.876z"/> </symbol><symbol viewBox="0 0 1056 1024" id="icon-down-arrow">   <path d="M605.631 734.508c-0.002 0-0.004 0-0.006 0-22.268 0-40.32-18.052-40.32-40.32 0-10.446 3.972-19.964 10.489-27.126l-0.029 0.033 397.653-445.867c7.451-9.203 18.748-15.037 31.408-15.037 22.268 0 40.32 18.052 40.32 40.32 0 11.331-4.674 21.571-12.199 28.895l-0.009 0.009-397.44 445.867c-7.435 8.098-18.053 13.172-29.857 13.227h-0.010z"/> <path d="M534.165 817.922c0.083 0.001 0.181 0.001 0.279 0.001 22.15 0 40.107-17.956 40.107-40.107 0-10.561-4.082-20.169-10.755-27.332l0.022 0.024-482.773-531.2c-7.405-8.141-18.042-13.231-29.867-13.231-22.271 0-40.325 18.054-40.325 40.325 0 10.446 3.972 19.963 10.487 27.126l-0.029-0.033 482.987 531.2c7.369 8.137 17.973 13.227 29.766 13.227 0.035 0 0.071 0 0.106 0h-0.005z"/> </symbol><symbol viewBox="0 0 28 28" id="icon-envelope"> <path d="M0 23.5v-12.406q0.688 0.766 1.578 1.359 5.656 3.844 7.766 5.391 0.891 0.656 1.445 1.023t1.477 0.75 1.719 0.383h0.031q0.797 0 1.719-0.383t1.477-0.75 1.445-1.023q2.656-1.922 7.781-5.391 0.891-0.609 1.563-1.359v12.406q0 1.031-0.734 1.766t-1.766 0.734h-23q-1.031 0-1.766-0.734t-0.734-1.766zM0 6.844q0-1.219 0.648-2.031t1.852-0.812h23q1.016 0 1.758 0.734t0.742 1.766q0 1.234-0.766 2.359t-1.906 1.922q-5.875 4.078-7.313 5.078-0.156 0.109-0.664 0.477t-0.844 0.594-0.812 0.508-0.898 0.422-0.781 0.141h-0.031q-0.359 0-0.781-0.141t-0.898-0.422-0.812-0.508-0.844-0.594-0.664-0.477q-1.422-1-4.094-2.852t-3.203-2.227q-0.969-0.656-1.828-1.805t-0.859-2.133z"/> </symbol><symbol viewBox="0 0 1056 1024" id="icon-facebook">   <path d="M527.92 0.103c0.024 0 0.052 0 0.080 0 282.713 0 511.897 229.184 511.897 511.897s-229.184 511.897-511.897 511.897c-282.713 0-511.897-229.184-511.897-511.897 0-141.362 57.301-269.341 149.943-361.977v0c92.367-92.617 220.104-149.92 361.225-149.92 0.228 0 0.456 0 0.684 0h-0.035zM861.878 178.455c-85.564-85.761-203.875-138.818-334.578-138.818-261.014 0-472.607 211.594-472.607 472.607s211.594 472.607 472.607 472.607c261.014 0 472.607-211.594 472.607-472.607 0-0.050 0-0.099 0-0.149v0.008c0-0.111 0-0.241 0-0.372 0-130.149-52.747-247.978-138.030-333.276l0.001 0.001z"/> <path d="M567.002 407.47v-41.977c-0.124-0.878-0.195-1.893-0.195-2.924 0-12.163 9.86-22.023 22.023-22.023 0.396 0 0.789 0.010 1.18 0.031l-0.055-0.002h58.727v-89.538h-80.853c-89.848 0-109.906 66.275-109.906 109.389v47.044h-51.696v104.633h52.73v261.376h104.116v-261.376h77.338l3.412-41.357 6.307-63.483z"/> </symbol><symbol viewBox="0 0 20 28" id="icon-google"> <path d="M1.734 21.156q0-1.266 0.695-2.344t1.852-1.797q2.047-1.281 6.312-1.563-0.5-0.641-0.742-1.148t-0.242-1.148q0-0.625 0.328-1.328-0.719 0.063-1.062 0.063-2.312 0-3.898-1.508t-1.586-3.82q0-1.281 0.562-2.484t1.547-2.047q1.188-1.031 2.844-1.531t3.406-0.5h6.516l-2.141 1.375h-2.063q1.172 0.984 1.766 2.078t0.594 2.5q0 1.125-0.383 2.023t-0.93 1.453-1.086 1.016-0.922 0.961-0.383 1.031q0 0.562 0.5 1.102t1.203 1.062 1.414 1.148 1.211 1.625 0.5 2.219q0 1.422-0.766 2.703-1.109 1.906-3.273 2.805t-4.664 0.898q-2.063 0-3.852-0.648t-2.695-2.148q-0.562-0.922-0.562-2.047zM4.641 20.438q0 0.875 0.367 1.594t0.953 1.18 1.359 0.781 1.563 0.453 1.586 0.133q0.906 0 1.742-0.203t1.547-0.609 1.141-1.141 0.43-1.703q0-0.391-0.109-0.766t-0.227-0.656-0.422-0.648-0.461-0.547-0.602-0.539-0.57-0.453-0.648-0.469-0.57-0.406q-0.25-0.031-0.766-0.031-0.828 0-1.633 0.109t-1.672 0.391-1.516 0.719-1.070 1.164-0.422 1.648zM6.297 4.906q0 0.719 0.156 1.523t0.492 1.609 0.812 1.445 1.172 1.047 1.508 0.406q0.578 0 1.211-0.258t1.023-0.68q0.828-0.875 0.828-2.484 0-0.922-0.266-1.961t-0.75-2.016-1.313-1.617-1.828-0.641q-0.656 0-1.289 0.305t-1.039 0.82q-0.719 0.922-0.719 2.5z"/> </symbol><symbol viewBox="0 0 1084 1024" id="icon-hamburger">   <path stroke-linejoin="miter" stroke-linecap="butt" stroke-miterlimit="10" stroke-width="60.2553" d="M1009.644 86.869h-935.289c-15.588 0-28.342-12.754-28.342-28.342s12.754-28.342 28.342-28.342h935.289c15.588 0 28.342 12.754 28.342 28.342s-12.471 28.342-28.342 28.342z"/> <path stroke-linejoin="miter" stroke-linecap="butt" stroke-miterlimit="10" stroke-width="60.2553" d="M1009.644 540.342h-935.289c-15.588 0-28.342-12.754-28.342-28.342s12.754-28.342 28.342-28.342h935.289c15.588 0 28.342 12.754 28.342 28.342s-12.471 28.342-28.342 28.342z"/> <path stroke-linejoin="miter" stroke-linecap="butt" stroke-miterlimit="10" stroke-width="60.2553" d="M1009.644 993.816h-935.289c-15.588 0-28.342-12.754-28.342-28.342s12.754-28.342 28.342-28.342h935.289c15.588 0 28.342 12.754 28.342 28.342s-12.471 28.342-28.342 28.342z"/> </symbol><symbol viewBox="0 0 1024 1024" id="icon-header-search">   <path d="M36.416 1017.75l311.574-311.572c71.854 64.716 166.592 104.49 270.678 104.49 223.498-0.002 405.332-181.834 405.332-405.334s-181.834-405.334-405.334-405.334-405.334 181.834-405.334 405.334c0 104.086 39.774 198.822 104.49 270.678l-311.572 311.572c-4.166 4.166-6.25 9.626-6.25 15.084s2.084 10.916 6.25 15.084c8.334 8.332 21.834 8.332 30.166-0.002zM256 405.334c0-199.958 162.688-362.666 362.666-362.666s362.668 162.708 362.668 362.666-162.688 362.666-362.668 362.666-362.666-162.708-362.666-362.666z"/> </symbol><symbol viewBox="0 0 368 512" id="icon-inkdrop">   <path d="M277.414 130.314c-40.321-62.959-81.228-114.885-81.636-115.403l-11.779-14.911-11.778 14.912c-0.408 0.517-41.315 52.443-81.636 115.403-55.172 86.145-83.145 151.372-83.145 193.869 0 103.562 79.204 187.816 176.56 187.816s176.56-84.254 176.56-187.816c-0.001-42.497-27.974-107.724-83.146-193.87z" stroke="black" stroke-width="20"/> </symbol><symbol viewBox="0 0 1056 1024" id="icon-instagram">   <path d="M527.92 0.103c0.024 0 0.052 0 0.080 0 282.713 0 511.897 229.184 511.897 511.897s-229.184 511.897-511.897 511.897c-282.713 0-511.897-229.184-511.897-511.897 0-141.362 57.301-269.341 149.943-361.977v0c92.32-92.616 220.016-149.92 361.097-149.92 0.273 0 0.546 0 0.819 0.001h-0.042zM861.878 178.455c-85.564-85.761-203.875-138.818-334.578-138.818-261.014 0-472.607 211.594-472.607 472.607s211.594 472.607 472.607 472.607c261.014 0 472.607-211.594 472.607-472.607 0-0.050 0-0.099 0-0.149v0.008c0-0.111 0-0.241 0-0.372 0-130.149-52.747-247.978-138.030-333.276l0.001 0.001z"/> <path d="M396.922 512.103c0.059-72.361 58.733-130.998 131.102-130.998 72.406 0 131.102 58.696 131.102 131.102s-58.696 131.102-131.102 131.102c-0.036 0-0.073 0-0.109 0h0.006c-72.326-0.235-130.881-58.862-130.998-131.194v-0.011zM663.364 255.483h-270.682c-66.943 0.234-121.149 54.439-121.383 121.36v270.704c0.292 66.92 54.463 121.091 121.355 121.383h270.71c66.991-0.118 121.265-54.392 121.383-121.372v-270.693c-0.059-67.014-54.369-121.324-121.377-121.383h-0.006zM392.683 285.88h270.682c50.247 0.059 90.971 40.747 91.089 90.974v270.693c-0.059 50.262-40.818 90.985-91.089 90.985h-270.682c-50.226-0.059-90.927-40.759-90.985-90.98v-270.688c0.059-50.226 40.759-90.927 90.98-90.985h0.006zM690.35 324.135c-14.732 0-26.675 11.943-26.675 26.675s11.943 26.675 26.675 26.675c14.732 0 26.675-11.943 26.675-26.675v0c0-0.031 0-0.067 0-0.104 0-14.675-11.897-26.572-26.572-26.572-0.036 0-0.073 0-0.109 0h0.006zM693.452 512.103c0-91.363-74.065-165.428-165.428-165.428s-165.428 74.065-165.428 165.428c0 91.363 74.065 165.428 165.428 165.428v0c91.363 0 165.428-74.065 165.428-165.428v0z"/> </symbol><symbol viewBox="0 0 24 24" id="icon-keyboard-arrow-down"><path d="M7.41 7.84L12 12.42l4.59-4.58L18 9.25l-6 6-6-6z"/></symbol><symbol viewBox="0 0 24 24" id="icon-keyboard-arrow-up"><path d="M7.41 15.41L12 10.83l4.59 4.58L18 14l-6-6-6 6z"/></symbol><symbol viewBox="0 0 32 32" id="icon-linkedin"> <path d="M27.2684444,27.2675556 L22.5226667,27.2675556 L22.5226667,19.8408889 C22.5226667,18.0702222 22.4924444,15.792 20.0568889,15.792 C17.5866667,15.792 17.2097778,17.7217778 17.2097778,19.7146667 L17.2097778,27.2675556 L12.4693333,27.2675556 L12.4693333,11.9964444 L17.0186667,11.9964444 L17.0186667,14.0844444 L17.0844444,14.0844444 C17.7173333,12.8835556 19.2657778,11.6177778 21.5742222,11.6177778 C26.3804444,11.6177778 27.2684444,14.7795556 27.2684444,18.8924444 L27.2684444,27.2675556 L27.2684444,27.2675556 Z M7.11822222,9.91022222 C5.59377778,9.91022222 4.36444444,8.67733333 4.36444444,7.15733333 C4.36444444,5.63822222 5.59377778,4.40533333 7.11822222,4.40533333 C8.63644444,4.40533333 9.86844444,5.63822222 9.86844444,7.15733333 C9.86844444,8.67733333 8.63644444,9.91022222 7.11822222,9.91022222 L7.11822222,9.91022222 Z M4.74133333,11.9964444 L9.49244444,11.9964444 L9.49244444,27.2675556 L4.74133333,27.2675556 L4.74133333,11.9964444 Z M29.632,0 L2.36,0 C1.05777778,0 0,1.03288889 0,2.30755556 L0,29.6906667 C0,30.9653333 1.05777778,32 2.36,32 L29.632,32 C30.9368889,32 31.9991111,30.9653333 31.9991111,29.6906667 L31.9991111,2.30755556 C31.9991111,1.03288889 30.9368889,0 29.632,0 L29.632,0 Z" id="linkedin-Fill-4"/> </symbol><symbol viewBox="0 0 24 24" id="icon-lock"><path d="M18 8h-1V6c0-2.76-2.24-5-5-5S7 3.24 7 6v2H6c-1.1 0-2 .9-2 2v10c0 1.1.9 2 2 2h12c1.1 0 2-.9 2-2V10c0-1.1-.9-2-2-2zm-6 9c-1.1 0-2-.9-2-2s.9-2 2-2 2 .9 2 2-.9 2-2 2zm3.1-9H8.9V6c0-1.71 1.39-3.1 3.1-3.1 1.71 0 3.1 1.39 3.1 3.1v2z"/></symbol><symbol viewBox="0 0 176.515 33.863" id="icon-logo-amazonpay"> <path d=" M 69.652 26.489 C 63.129 31.303 53.672 33.863 45.528 33.863 C 34.115 33.863 23.837 29.644 16.059 22.621 C 15.449 22.069 15.993 21.316 16.727 21.743 C 25.118 26.626 35.496 29.567 46.213 29.567 C 53.443 29.567 61.391 28.066 68.704 24.964 C 69.807 24.497 70.732 25.691 69.652 26.489 Z " fill-rule="evenodd"/> <path d=" M 72.367 23.389 C 71.532 22.321 66.852 22.883 64.749 23.135 C 64.112 23.212 64.013 22.655 64.587 22.252 C 68.321 19.629 74.44 20.386 75.151 21.265 C 75.867 22.15 74.962 28.285 71.464 31.212 C 70.925 31.662 70.413 31.422 70.652 30.828 C 71.44 28.861 73.202 24.459 72.367 23.389 Z " fill-rule="evenodd"/> <path d=" M 64.897 3.724 L 64.897 1.176 C 64.899 0.788 65.191 0.53 65.543 0.531 L 76.965 0.53 C 77.33 0.53 77.624 0.795 77.624 1.173 L 77.624 3.358 C 77.62 3.725 77.311 4.203 76.764 4.962 L 70.847 13.41 C 73.043 13.359 75.366 13.688 77.362 14.809 C 77.812 15.062 77.933 15.437 77.968 15.804 L 77.968 18.523 C 77.968 18.898 77.558 19.331 77.126 19.106 C 73.611 17.264 68.946 17.063 65.058 19.128 C 64.661 19.34 64.246 18.912 64.246 18.537 L 64.246 15.952 C 64.246 15.539 64.254 14.831 64.671 14.201 L 71.525 4.367 L 65.557 4.366 C 65.192 4.366 64.899 4.106 64.897 3.724 Z " fill-rule="evenodd"/> <path d=" M 23.233 19.641 L 19.758 19.641 C 19.427 19.62 19.163 19.372 19.136 19.054 L 19.139 1.219 C 19.139 0.863 19.439 0.578 19.81 0.578 L 23.046 0.577 C 23.384 0.594 23.656 0.85 23.677 1.176 L 23.677 3.504 L 23.743 3.504 C 24.586 1.252 26.175 0.201 28.316 0.201 C 30.489 0.201 31.852 1.252 32.825 3.504 C 33.668 1.252 35.582 0.201 37.625 0.201 C 39.085 0.201 40.674 0.802 41.647 2.153 C 42.75 3.655 42.524 5.831 42.524 7.745 L 42.52 19 C 42.52 19.355 42.221 19.641 41.85 19.641 L 38.38 19.641 C 38.03 19.619 37.756 19.343 37.756 19.001 L 37.755 9.546 C 37.755 8.796 37.82 6.92 37.657 6.207 C 37.398 5.005 36.62 4.667 35.615 4.667 C 34.771 4.667 33.895 5.23 33.538 6.13 C 33.181 7.032 33.214 8.532 33.214 9.546 L 33.214 19 C 33.214 19.355 32.914 19.641 32.544 19.641 L 29.073 19.641 C 28.724 19.619 28.449 19.343 28.449 19.001 L 28.445 9.546 C 28.445 7.557 28.77 4.631 26.305 4.631 C 23.807 4.631 23.905 7.482 23.905 9.546 L 23.903 19 C 23.903 19.355 23.603 19.641 23.233 19.641 Z " fill-rule="evenodd"/> <path d=" M 87.488 3.842 C 84.926 3.842 84.764 7.331 84.764 9.508 C 84.764 11.685 84.732 16.339 87.457 16.339 C 90.149 16.339 90.279 12.586 90.279 10.297 C 90.279 8.796 90.213 6.994 89.759 5.568 C 89.37 4.329 88.591 3.842 87.488 3.842 Z  M 87.457 0.201 C 92.614 0.201 95.403 4.631 95.403 10.26 C 95.403 15.7 92.322 20.017 87.457 20.017 C 82.396 20.017 79.639 15.588 79.639 10.072 C 79.639 4.517 82.428 0.201 87.457 0.201 Z " fill-rule="evenodd"/> <path d=" M 102.092 19.641 L 98.629 19.641 C 98.282 19.619 98.006 19.343 98.006 19.001 L 98 1.16 C 98.03 0.833 98.318 0.578 98.668 0.578 L 101.891 0.577 C 102.195 0.593 102.445 0.799 102.509 1.076 L 102.509 3.804 L 102.574 3.804 C 103.548 1.364 104.909 0.201 107.309 0.201 C 108.866 0.201 110.391 0.764 111.364 2.303 C 112.272 3.729 112.272 6.13 112.272 7.857 L 112.272 19.08 C 112.234 19.396 111.95 19.641 111.606 19.641 L 108.123 19.641 C 107.801 19.621 107.542 19.384 107.504 19.08 L 107.504 9.397 C 107.504 7.445 107.732 4.592 105.331 4.592 C 104.488 4.592 103.709 5.155 103.32 6.018 C 102.833 7.107 102.768 8.195 102.768 9.397 L 102.768 19 C 102.762 19.355 102.462 19.641 102.092 19.641 Z " fill-rule="evenodd"/> <path d=" M 59.294 19.597 C 59.065 19.803 58.734 19.817 58.474 19.678 C 57.32 18.719 57.113 18.276 56.482 17.362 C 54.575 19.305 53.224 19.888 50.753 19.888 C 47.828 19.888 45.552 18.082 45.552 14.472 C 45.552 11.651 47.081 9.733 49.258 8.793 C 51.143 7.965 53.776 7.815 55.792 7.589 L 55.792 7.138 C 55.792 6.309 55.857 5.333 55.369 4.618 C 54.946 3.978 54.134 3.715 53.419 3.715 C 52.093 3.715 50.916 4.394 50.626 5.801 C 50.565 6.114 50.337 6.425 50.023 6.441 L 46.654 6.076 C 46.37 6.011 46.054 5.783 46.135 5.349 C 46.9 1.32 50.498 0.064 53.768 0.03 L 54.026 0.03 C 55.7 0.051 57.838 0.51 59.14 1.759 C 60.831 3.339 60.667 5.445 60.667 7.74 L 60.667 13.153 C 60.667 14.782 61.344 15.496 61.979 16.373 C 62.202 16.69 62.251 17.065 61.968 17.297 C 61.258 17.892 59.997 18.987 59.304 19.605 L 59.294 19.597 Z  M 55.792 11.125 C 55.792 12.479 55.824 13.607 55.142 14.811 C 54.589 15.788 53.711 16.39 52.736 16.39 C 51.404 16.39 50.624 15.375 50.624 13.87 C 50.624 10.91 53.278 10.372 55.792 10.372 L 55.792 11.125 Z " fill-rule="evenodd"/> <path d=" M 13.743 19.597 C 13.513 19.803 13.181 19.817 12.922 19.678 C 11.767 18.719 11.56 18.276 10.93 17.362 C 9.022 19.305 7.672 19.888 5.201 19.888 C 2.276 19.888 0 18.082 0 14.472 C 0 11.651 1.527 9.733 3.706 8.793 C 5.591 7.965 8.224 7.815 10.239 7.589 L 10.239 7.138 C 10.239 6.309 10.305 5.333 9.817 4.618 C 9.394 3.978 8.581 3.715 7.867 3.715 C 6.541 3.715 5.362 4.394 5.074 5.801 C 5.014 6.114 4.785 6.425 4.47 6.441 L 1.102 6.076 C 0.817 6.011 0.501 5.783 0.583 5.349 C 1.346 1.32 4.945 0.064 8.216 0.03 L 8.474 0.03 C 10.148 0.051 12.286 0.51 13.588 1.759 C 15.278 3.339 15.115 5.445 15.115 7.74 L 15.115 13.153 C 15.115 14.782 15.792 15.496 16.427 16.373 C 16.648 16.69 16.699 17.065 16.416 17.297 C 15.706 17.892 14.444 18.987 13.751 19.605 L 13.743 19.597 Z  M 10.239 11.125 C 10.239 12.479 10.272 13.607 9.589 14.811 C 9.037 15.788 8.159 16.39 7.183 16.39 C 5.851 16.39 5.071 15.375 5.071 13.87 C 5.071 10.91 7.726 10.372 10.239 10.372 L 10.239 11.125 Z " fill-rule="evenodd"/> <path d=" M 159.773 26.039 C 159.773 25.587 159.773 25.181 159.773 24.729 C 159.773 24.356 159.956 24.099 160.345 24.122 C 161.071 24.225 162.098 24.328 162.827 24.178 C 163.779 23.98 164.462 23.305 164.866 22.38 C 165.435 21.078 165.812 20.028 166.05 19.339 L 158.821 1.431 C 158.699 1.127 158.663 0.563 159.27 0.563 L 161.797 0.563 C 162.279 0.563 162.475 0.869 162.583 1.169 L 167.824 15.715 L 172.827 1.169 C 172.929 0.871 173.134 0.563 173.612 0.563 L 175.995 0.563 C 176.598 0.563 176.564 1.126 176.444 1.431 L 169.273 19.898 C 168.345 22.356 167.109 26.271 164.325 26.951 C 162.929 27.316 161.168 27.184 160.134 26.751 C 159.873 26.62 159.773 26.27 159.773 26.039 Z " fill-rule="evenodd"/> <path d=" M 156.402 18.55 C 156.402 18.883 156.129 19.156 155.794 19.156 L 154.012 19.156 C 153.627 19.156 153.364 18.878 153.315 18.55 L 153.136 17.337 C 152.317 18.03 151.312 18.639 150.222 19.063 C 148.126 19.877 145.71 20.012 143.662 18.754 C 142.181 17.845 141.395 16.068 141.395 14.235 C 141.395 12.817 141.832 11.411 142.801 10.39 C 144.094 8.995 145.968 8.31 148.231 8.31 C 149.598 8.31 151.554 8.471 152.977 8.936 L 152.977 6.495 C 152.977 4.013 151.932 2.939 149.177 2.939 C 147.071 2.939 145.46 3.257 143.218 3.954 C 142.859 3.966 142.649 3.693 142.649 3.36 L 142.649 1.968 C 142.649 1.634 142.934 1.311 143.243 1.213 C 144.844 0.515 147.112 0.08 149.523 0 C 152.666 0 156.402 0.709 156.402 5.543 L 156.402 18.55 Z  M 152.977 14.986 L 152.977 11.303 C 151.781 10.976 149.802 10.84 149.036 10.84 C 147.826 10.84 146.501 11.126 145.809 11.871 C 145.292 12.417 145.058 13.201 145.058 13.959 C 145.058 14.939 145.397 15.922 146.189 16.408 C 147.109 17.033 148.536 16.957 149.877 16.576 C 151.166 16.21 152.376 15.563 152.977 14.986 Z " fill-rule="evenodd"/> <path d=" M 130.127 2.994 C 134.081 2.994 135.158 6.103 135.158 9.663 C 135.18 12.063 134.739 14.203 133.496 15.428 C 132.566 16.345 131.527 16.595 129.963 16.595 C 128.571 16.595 126.74 15.869 125.372 14.858 L 125.372 4.679 C 126.796 3.585 128.613 2.994 130.127 2.994 Z  M 124.766 26.678 L 122.379 26.678 C 122.045 26.678 121.772 26.405 121.772 26.072 C 121.772 17.782 121.772 9.491 121.772 1.201 C 121.772 0.868 122.045 0.595 122.379 0.595 L 124.206 0.595 C 124.59 0.595 124.853 0.873 124.902 1.201 L 125.094 2.504 C 126.805 0.985 129.008 0.011 131.107 0.011 C 136.986 0.011 138.919 4.855 138.919 9.892 C 138.919 15.281 135.962 19.611 130.961 19.611 C 128.855 19.611 126.886 18.834 125.372 17.484 L 125.372 26.072 C 125.372 26.405 125.099 26.678 124.766 26.678 Z " fill-rule="evenodd"/></symbol><symbol viewBox="0 0 70 32" id="icon-logo-american-express"> <path d="M69.102 17.219l0.399 9.094c-0.688 0.313-3.285 1.688-4.26 1.688h-4.788v-0.656c-0.546 0.438-1.549 0.656-2.467 0.656h-15.053v-2.466c0-0.344-0.057-0.344-0.345-0.344h-0.257v2.81h-4.961v-2.924c-0.832 0.402-1.749 0.402-2.581 0.402h-0.544v2.523h-6.050l-1.434-1.656-1.577 1.656h-9.72v-10.781h9.892l1.405 1.663 1.548-1.663h6.652c0.775 0 2.037 0.115 2.581 0.66v-0.66h5.936c0.602 0 1.749 0.115 2.523 0.66v-0.66h8.946v0.66c0.516-0.43 1.433-0.66 2.265-0.66h4.988v0.66c0.546-0.372 1.32-0.66 2.323-0.66h4.578zM34.905 23.871c1.577 0 3.183-0.43 3.183-2.581 0-2.093-1.635-2.523-3.069-2.523h-5.878l-2.38 2.523-2.236-2.523h-7.427v7.67h7.312l2.351-2.509 2.266 2.509h3.556v-2.566h2.322zM46.001 23.556c-0.172-0.23-0.487-0.516-0.946-0.66 0.516-0.172 1.318-0.832 1.318-2.036 0-0.889-0.315-1.377-0.917-1.721-0.602-0.315-1.319-0.372-2.266-0.372h-4.215v7.67h1.864v-2.796h1.978c0.66 0 1.032 0.058 1.319 0.344 0.316 0.373 0.316 1.032 0.316 1.548v0.903h1.836v-1.477c0-0.688-0.058-1.032-0.288-1.405zM53.571 20.373v-1.605h-6.136v7.67h6.136v-1.563h-4.33v-1.549h4.244v-1.548h-4.244v-1.405h4.33zM58.245 26.438c1.864 0 2.926-0.759 2.926-2.393 0-0.774-0.23-1.262-0.545-1.664-0.459-0.372-1.119-0.602-2.151-0.602h-1.004c-0.258 0-0.487-0.057-0.717-0.115-0.201-0.086-0.373-0.258-0.373-0.545 0-0.258 0.058-0.43 0.287-0.602 0.143-0.115 0.373-0.115 0.717-0.115h3.383v-1.634h-3.671c-1.978 0-2.638 1.204-2.638 2.294 0 2.438 2.151 2.322 3.842 2.38 0.344 0 0.544 0.058 0.66 0.173 0.115 0.086 0.23 0.315 0.23 0.544 0 0.201-0.115 0.373-0.23 0.488-0.173 0.115-0.373 0.172-0.717 0.172h-3.555v1.62h3.555zM65.442 26.439c1.864 0 2.924-0.76 2.924-2.394 0-0.774-0.229-1.262-0.544-1.664-0.459-0.372-1.119-0.602-2.151-0.602h-1.003c-0.258 0-0.488-0.057-0.718-0.115-0.201-0.086-0.373-0.258-0.373-0.545 0-0.258 0.115-0.43 0.287-0.602 0.144-0.115 0.373-0.115 0.717-0.115h3.383v-1.634h-3.671c-1.921 0-2.638 1.204-2.638 2.294 0 2.438 2.151 2.322 3.842 2.38 0.344 0 0.544 0.058 0.66 0.174 0.115 0.086 0.229 0.315 0.229 0.544 0 0.201-0.114 0.373-0.229 0.488s-0.373 0.172-0.717 0.172h-3.556v1.62h3.556zM43.966 20.518c0.23 0.115 0.373 0.344 0.373 0.659 0 0.344-0.143 0.602-0.373 0.774-0.287 0.115-0.545 0.115-0.889 0.115l-2.237 0.058v-1.749h2.237c0.344 0 0.659 0 0.889 0.143zM36.108 8.646c-0.287 0.172-0.544 0.172-0.918 0.172h-2.265v-1.692h2.265c0.316 0 0.688 0 0.918 0.114 0.23 0.144 0.344 0.374 0.344 0.718 0 0.315-0.114 0.602-0.344 0.689zM50.789 6.839l1.262 3.039h-2.523zM30.775 25.792l-2.838-3.183 2.838-3.011v6.193zM35.019 20.373c0.66 0 1.090 0.258 1.090 0.918s-0.43 1.032-1.090 1.032h-2.437v-1.95h2.437zM5.773 9.878l1.291-3.039 1.262 3.039h-2.552zM18.905 20.372l4.616 0 2.036 2.237-2.093 2.265h-4.559v-1.549h4.071v-1.548h-4.071v-1.405zM19.077 13.376l-0.545 1.377h-3.24l-0.546-1.319v1.319h-6.222l-0.66-1.749h-1.577l-0.717 1.749h-5.572l2.389-5.649 2.237-5.104h4.789l0.659 1.262v-1.262h5.591l1.262 2.724 1.233-2.724h17.835c0.832 0 1.548 0.143 2.093 0.602v-0.602h4.903v0.602c0.803-0.459 1.864-0.602 3.068-0.602h7.082l0.66 1.262v-1.262h5.218l0.775 1.262v-1.262h5.103v10.753h-5.161l-1.003-1.635v1.635h-6.423l-0.717-1.749h-1.577l-0.717 1.749h-3.355c-1.318 0-2.294-0.316-2.954-0.659v0.659h-7.971v-2.466c0-0.344-0.057-0.402-0.286-0.402h-0.258v2.867h-15.398v-1.377zM43.363 6.409c-0.832 0.831-0.975 1.864-1.004 3.011 0 1.377 0.344 2.266 0.947 2.925 0.659 0.66 1.806 0.86 2.695 0.86h2.151l0.716-1.692h3.843l0.717 1.692h3.727v-5.763l3.47 5.763h2.638v-7.684h-1.892v5.333l-3.24-5.333h-2.839v7.254l-3.096-7.254h-2.724l-2.638 6.050h-0.832c-0.487 0-1.003-0.115-1.262-0.373-0.344-0.402-0.488-1.004-0.488-1.836 0-0.803 0.144-1.405 0.488-1.748 0.373-0.316 0.774-0.431 1.434-0.431h1.749v-1.663h-1.749c-1.262 0-2.265 0.286-2.81 0.889zM39.579 5.52v7.684h1.863v-7.684h-1.863zM31.12 5.52l-0 7.685h1.806v-2.781h1.979c0.66 0 1.090 0.057 1.376 0.315 0.316 0.401 0.258 1.061 0.258 1.491v0.975h1.892v-1.519c0-0.66-0.057-1.004-0.344-1.377-0.172-0.229-0.487-0.488-0.889-0.659 0.516-0.23 1.319-0.832 1.319-2.036 0-0.889-0.373-1.377-0.976-1.75-0.602-0.344-1.262-0.344-2.208-0.344h-4.215zM23.636 5.521v7.685h6.165v-1.577h-4.301v-1.549h4.244v-1.577h-4.244v-1.377h4.301v-1.606h-6.165zM16.124 13.205h1.577l2.695-6.021v6.021h1.864v-7.684h-3.011l-2.265 5.219-2.409-5.219h-2.953v7.254l-3.154-7.254h-2.724l-3.297 7.684h1.978l0.688-1.692h3.871l0.688 1.692h3.756v-6.021z"/> </symbol><symbol viewBox="0 0 95 32" id="icon-logo-discover"> <path d="M50.431 8.059c4.546 0 8.092 3.49 8.092 7.936 0 4.471-3.571 7.961-8.093 7.961-4.638 0-8.115-3.444-8.115-8.051 0-4.334 3.635-7.845 8.115-7.845zM4.362 8.345c4.811 0 8.168 3.133 8.168 7.64 0 2.247-1.028 4.422-2.761 5.864-1.461 1.214-3.126 1.761-5.429 1.761h-4.339v-15.265h4.362zM7.832 19.81c1.027-0.912 1.639-2.379 1.639-3.847 0-1.464-0.612-2.882-1.639-3.798-0.984-0.892-2.146-1.235-4.065-1.235h-0.797v10.096h0.797c1.919 0 3.127-0.367 4.065-1.216zM13.9 23.611v-15.265h2.965v15.265h-2.965zM24.123 14.201c3.378 1.238 4.379 2.338 4.379 4.764 0 2.952-2.166 5.015-5.247 5.015-2.261 0-3.904-0.896-5.271-2.907l1.914-1.856c0.685 1.328 1.825 2.036 3.24 2.036 1.325 0 2.308-0.915 2.308-2.152 0-0.641-0.298-1.189-0.891-1.578-0.297-0.187-0.889-0.46-2.054-0.87-2.784-1.010-3.742-2.085-3.742-4.192 0-2.493 2.055-4.371 4.745-4.371 1.667 0 3.196 0.571 4.473 1.696l-1.549 2.033c-0.778-0.867-1.508-1.233-2.398-1.233-1.28 0-2.213 0.732-2.213 1.694 0 0.821 0.525 1.258 2.307 1.921zM29.438 15.986c0-4.436 3.605-7.985 8.101-7.985 1.278 0 2.352 0.273 3.653 0.935v3.504c-1.233-1.213-2.308-1.717-3.72-1.717-2.787 0-4.976 2.313-4.976 5.241 0 3.092 2.123 5.267 5.112 5.267 1.347 0 2.397-0.48 3.585-1.671v3.504c-1.347 0.638-2.443 0.892-3.72 0.892-4.519 0-8.034-3.478-8.034-7.97zM65.239 18.601l4.11-10.254h3.216l-6.573 15.655h-1.596l-6.46-15.655h3.24zM73.914 23.612v-15.265h8.418v2.585h-5.453v3.388h5.244v2.585h-5.244v4.123h5.453v2.584h-8.418zM94.081 12.852c0 2.336-1.23 3.87-3.469 4.329l4.794 6.43h-3.651l-4.105-6.135h-0.388v6.135h-2.969v-15.265h4.404c3.425 0 5.384 1.645 5.384 4.506zM88.125 15.372c1.9 0 2.903-0.827 2.903-2.359 0-1.486-1.004-2.266-2.856-2.266h-0.911v4.626h0.863z"/> </symbol><symbol viewBox="0 0 435.97 173.13" id="icon-logo-googlepay"> <path d="M206.2,84.58v50.75H190.1V10h42.7a38.61,38.61,0,0,1,27.65,10.85A34.88,34.88,0,0,1,272,47.3a34.72,34.72,0,0,1-11.55,26.6q-11.2,10.68-27.65,10.67H206.2Zm0-59.15V69.18h27a21.28,21.28,0,0,0,15.93-6.48,21.36,21.36,0,0,0,0-30.63,21,21,0,0,0-15.93-6.65h-27Z"/> <path d="M309.1,46.78q17.85,0,28.18,9.54T347.6,82.48v52.85H332.2v-11.9h-.7q-10,14.7-26.6,14.7-14.17,0-23.71-8.4a26.82,26.82,0,0,1-9.54-21q0-13.31,10.06-21.17t26.86-7.88q14.34,0,23.62,5.25V81.25A18.33,18.33,0,0,0,325.54,67,22.8,22.8,0,0,0,310,61.13q-13.49,0-21.35,11.38l-14.18-8.93Q286.17,46.78,309.1,46.78Zm-20.83,62.3a12.86,12.86,0,0,0,5.34,10.5,19.64,19.64,0,0,0,12.51,4.2,25.67,25.67,0,0,0,18.11-7.52q8-7.53,8-17.67-7.53-6-21-6-9.81,0-16.36,4.73C290.46,100.52,288.27,104.41,288.27,109.08Z"/> <path d="M436,49.58,382.24,173.13H365.62l19.95-43.23L350.22,49.58h17.5l25.55,61.6h.35l24.85-61.6Z"/> <path d="M141.14,73.64A85.79,85.79,0,0,0,139.9,59H72V86.73h38.89a33.33,33.33,0,0,1-14.38,21.88v18h23.21C133.31,114.08,141.14,95.55,141.14,73.64Z"/> <path d="M72,144c19.43,0,35.79-6.38,47.72-17.38l-23.21-18C90.05,113,81.73,115.5,72,115.5c-18.78,0-34.72-12.66-40.42-29.72H7.67v18.55A72,72,0,0,0,72,144Z"/> <path d="M31.58,85.78a43.14,43.14,0,0,1,0-27.56V39.67H7.67a72,72,0,0,0,0,64.66Z"/> <path d="M72,28.5A39.09,39.09,0,0,1,99.62,39.3h0l20.55-20.55A69.18,69.18,0,0,0,72,0,72,72,0,0,0,7.67,39.67L31.58,58.22C37.28,41.16,53.22,28.5,72,28.5Z"/> </symbol><symbol viewBox="0 0 54 32" id="icon-logo-mastercard"> <path d="M48.366 15.193c0.6 0 0.9 0.437 0.9 1.282 0 1.281-0.546 2.209-1.337 2.209-0.6 0-0.9-0.436-0.9-1.31 0-1.281 0.573-2.182 1.337-2.182zM38.276 18.275c0-0.655 0.491-1.009 1.472-1.009 0.109 0 0.191 0.027 0.382 0.027-0.027 0.982-0.545 1.636-1.227 1.636-0.382 0-0.628-0.245-0.628-0.655zM26.278 15.848c0 0.082-0 0.192-0 0.327h-1.909c0.164-0.763 0.545-1.173 1.091-1.173 0.518 0 0.818 0.3 0.818 0.845zM38.060 0.002c8.838 0 16.003 7.165 16.003 16.002s-7.165 15.999-16.003 15.999c-3.834 0-7.324-1.344-10.080-3.594 2.102-2.031 3.707-4.567 4.568-7.44h-1.33c-0.833 2.553-2.297 4.807-4.199 6.627-1.892-1.816-3.342-4.078-4.172-6.62h-1.33c0.858 2.856 2.435 5.401 4.521 7.432-2.749 2.219-6.223 3.594-10.036 3.594-8.837 0-16.002-7.163-16.002-15.999s7.164-16.001 16.002-16.001c3.814 0 7.287 1.377 10.036 3.603-2.087 2.023-3.664 4.568-4.521 7.424h1.33c0.83-2.542 2.28-4.804 4.172-6.607 1.903 1.808 3.367 4.060 4.199 6.614h1.33c-0.861-2.872-2.466-5.413-4.568-7.443 2.757-2.249 6.246-3.592 10.080-3.592zM7.217 20.213h1.691l1.336-8.044h-2.672l-1.637 4.99-0.082-4.99h-2.454l-1.336 8.044h1.582l1.037-6.135 0.136 6.135h1.173l2.209-6.189zM14.47 19.477l0.054-0.408 0.382-2.318c0.109-0.736 0.136-0.982 0.136-1.309 0-1.254-0.791-1.909-2.263-1.909-0.627 0-1.2 0.082-2.045 0.327l-0.246 1.473 0.163-0.028 0.246-0.081c0.382-0.109 0.928-0.164 1.418-0.164 0.79 0 1.091 0.164 1.091 0.6 0 0.109 0 0.191-0.055 0.409-0.273-0.027-0.518-0.054-0.709-0.054-1.909 0-2.999 0.927-2.999 2.536 0 1.064 0.627 1.773 1.554 1.773 0.791 0 1.364-0.246 1.8-0.791l-0.027 0.682h1.418l0.027-0.164 0.027-0.246zM17.988 16.314c-0.736-0.327-0.819-0.409-0.819-0.709 0-0.355 0.3-0.519 0.845-0.519 0.328 0 0.791 0.028 1.227 0.082l0.246-1.5c-0.436-0.082-1.118-0.137-1.5-0.137-1.909 0-2.59 1.009-2.563 2.208 0 0.818 0.382 1.391 1.282 1.828 0.709 0.327 0.818 0.436 0.818 0.709 0 0.409-0.3 0.6-0.982 0.6-0.518 0-0.982-0.082-1.527-0.245l-0.246 1.5 0.082 0.027 0.3 0.054c0.109 0.027 0.246 0.055 0.464 0.055 0.382 0.054 0.709 0.054 0.928 0.054 1.8 0 2.645-0.682 2.645-2.181 0-0.9-0.354-1.418-1.2-1.828zM21.75 18.741c-0.409 0-0.573-0.136-0.573-0.464 0-0.082 0-0.164 0.027-0.273l0.463-2.726h0.873l0.218-1.609h-0.873l0.191-0.982h-1.691l-0.737 4.472-0.082 0.518-0.109 0.654c-0.027 0.191-0.055 0.409-0.055 0.573 0 0.954 0.491 1.445 1.364 1.445 0.382 0 0.764-0.055 1.227-0.218l0.218-1.445c-0.109 0.054-0.273 0.054-0.464 0.054zM25.732 18.851c-0.982 0-1.5-0.381-1.5-1.145 0-0.055 0-0.109 0.027-0.191h3.382c0.163-0.682 0.218-1.145 0.218-1.636 0-1.446-0.9-2.373-2.318-2.373-1.718 0-2.973 1.663-2.973 3.899 0 1.936 0.982 2.945 2.89 2.945 0.628 0 1.173-0.082 1.773-0.273l0.273-1.636c-0.6 0.3-1.145 0.409-1.773 0.409zM31.158 15.524h0.109c0.164-0.79 0.382-1.363 0.655-1.881l-0.055-0.027h-0.164c-0.573 0-0.9 0.273-1.418 1.064l0.164-1.009h-1.554l-1.064 6.544h1.718c0.627-4.008 0.791-4.69 1.609-4.69zM36.122 20.133l0.3-1.827c-0.545 0.273-1.036 0.409-1.445 0.409-1.009 0-1.609-0.737-1.609-1.963 0-1.773 0.9-3.027 2.182-3.027 0.491 0 0.928 0.136 1.528 0.436l0.3-1.745c-0.163-0.054-0.218-0.082-0.436-0.163l-0.682-0.164c-0.218-0.054-0.491-0.082-0.791-0.082-2.263 0-3.845 2.018-3.845 4.88 0 2.155 1.146 3.491 3 3.491 0.463 0 0.872-0.082 1.5-0.246zM41.521 19.069l0.355-2.318c0.136-0.736 0.136-0.982 0.136-1.309 0-1.254-0.763-1.909-2.236-1.909-0.627 0-1.2 0.082-2.045 0.327l-0.246 1.473 0.164-0.028 0.218-0.081c0.382-0.109 0.955-0.164 1.446-0.164 0.791 0 1.091 0.164 1.091 0.6 0 0.109-0.027 0.191-0.082 0.409-0.246-0.027-0.491-0.054-0.682-0.054-1.909 0-3 0.927-3 2.536 0 1.064 0.627 1.773 1.555 1.773 0.791 0 1.363-0.246 1.8-0.791l-0.028 0.682h1.418v-0.164l0.027-0.246 0.054-0.327zM43.648 20.214c0.627-4.008 0.791-4.69 1.608-4.69h0.109c0.164-0.79 0.382-1.363 0.655-1.881l-0.055-0.027h-0.164c-0.572 0-0.9 0.273-1.418 1.064l0.164-1.009h-1.554l-1.037 6.544h1.691zM48.829 20.214l1.608 0 1.309-8.044h-1.691l-0.382 2.291c-0.464-0.6-0.955-0.9-1.637-0.9-1.5 0-2.782 1.854-2.782 4.035 0 1.636 0.818 2.7 2.073 2.7 0.627 0 1.118-0.218 1.582-0.709zM11.306 18.279c0-0.655 0.492-1.009 1.447-1.009 0.136 0 0.218 0.027 0.382 0.027-0.027 0.982-0.518 1.636-1.228 1.636-0.382 0-0.6-0.245-0.6-0.655z"/> </symbol><symbol viewBox="0 0 57 32" id="icon-logo-paypal"> <path d="M47.11 10.477c2.211-0.037 4.633 0.618 4.072 3.276l-1.369 6.263h-3.159l0.211-0.947c-1.72 1.712-6.038 1.821-5.335-2.111 0.491-2.294 2.878-3.023 6.423-3.023 0.246-1.020-0.457-1.274-1.65-1.238s-2.633 0.437-3.089 0.655l0.281-2.293c0.913-0.182 2.106-0.583 3.615-0.583zM47.32 16.885c0.069-0.291 0.106-0.547 0.176-0.838h-0.773c-0.596 0-1.579 0.146-1.931 0.765-0.456 0.728 0.177 1.348 0.878 1.311 0.807-0.037 1.474-0.401 1.65-1.238zM53.883 8h3.242l-2.646 12.016h-3.209zM39.142 8.037c1.689 0 3.729 1.274 3.131 4.077-0.528 2.476-2.498 3.933-4.89 3.933h-2.428l-0.879 3.969h-3.412l2.603-11.979h5.874zM39.037 12.114c0.211-0.911-0.317-1.638-1.197-1.638h-1.689l-0.704 3.277h1.583c0.88 0 1.795-0.728 2.006-1.638zM16.346 10.476c2.184-0.037 4.611 0.618 4.056 3.276l-1.352 6.262h-3.155l0.208-0.947c-1.664 1.712-5.929 1.821-5.235-2.111 0.486-2.294 2.844-3.023 6.345-3.023 0.208-1.020-0.485-1.274-1.664-1.238s-2.601 0.437-3.017 0.655l0.277-2.293c0.867-0.182 2.046-0.583 3.537-0.583zM16.589 16.885c0.035-0.291 0.104-0.547 0.173-0.838h-0.797c-0.555 0-1.525 0.146-1.872 0.765-0.451 0.728 0.138 1.348 0.832 1.311 0.797-0.037 1.491-0.401 1.664-1.238zM28.528 10.648l3.255-0-7.496 13.351h-3.528l2.306-3.925-1.289-9.426h3.156l0.508 5.579zM8.499 8.036c1.728 0 3.738 1.274 3.139 4.077-0.529 2.476-2.504 3.933-4.867 3.933h-2.468l-0.847 3.969h-3.456l2.609-11.979h5.89zM8.393 12.114c0.247-0.911-0.317-1.638-1.164-1.638h-1.693l-0.741 3.277h1.623c0.882 0 1.763-0.728 1.975-1.638z"/> </symbol><symbol viewBox="0 0 26 26" id="icon-logo-small"><path d="M17.647 12.125h-3.323c-.11 0-.197.087-.197.194v2.327c0 .107.087.193.197.193h3.323c.95 0 1.542-.524 1.542-1.357 0-.795-.594-1.358-1.543-1.358zm-2.62-2.423h3.233c2.51 0 3.988 1.57 3.988 3.296 0 1.35-.915 2.345-1.885 2.78-.155.07-.15.283.01.346 1.128.443 1.94 1.623 1.94 3 0 1.96-1.305 3.512-3.837 3.512h-6.96c-.11 0-.197-.087-.197-.194v-9.03L.237 24.49c-.51.508-.148 1.378.57 1.378h24.254c.446 0 .808-.362.808-.808V.81c0-.72-.87-1.08-1.38-.572L15.03 9.702zm-.703 7.562c-.11 0-.197.087-.197.194v2.56c0 .106.087.193.197.193h3.44c1.05 0 1.682-.542 1.682-1.472 0-.815-.593-1.474-1.68-1.474h-3.442z" fill="#FFF" fill-rule="evenodd"/></symbol><symbol viewBox="0 0 49 32" id="icon-logo-visa"> <path d="M14.059 10.283l4.24-0-6.302 15.472-4.236 0.003-3.259-12.329c2.318 0.952 4.379 3.022 5.219 5.275l0.42 2.148zM17.416 25.771l2.503-15.501h4.001l-2.503 15.501h-4.002zM31.992 16.494c2.31 1.106 3.375 2.444 3.362 4.211-0.032 3.217-2.765 5.295-6.97 5.295-1.796-0.020-3.526-0.394-4.459-0.826l0.56-3.469 0.515 0.246c1.316 0.579 2.167 0.814 3.769 0.814 1.151 0 2.385-0.476 2.396-1.514 0.007-0.679-0.517-1.165-2.077-1.924-1.518-0.74-3.53-1.983-3.505-4.211 0.024-3.012 2.809-5.116 6.765-5.116 1.55 0 2.795 0.339 3.586 0.651l-0.542 3.36-0.359-0.178c-0.74-0.314-1.687-0.617-2.995-0.595-1.568 0-2.293 0.689-2.293 1.333-0.010 0.728 0.848 1.204 2.246 1.923zM46.199 10.285l3.239 15.49h-3.714s-0.368-1.782-0.488-2.322c-0.583 0-4.667-0.008-5.125-0.008-0.156 0.42-0.841 2.331-0.841 2.331h-4.205l5.944-14.205c0.419-1.011 1.138-1.285 2.097-1.285h3.093zM41.263 20.274c0.781 0 2.698 0 3.322 0-0.159-0.775-0.927-4.474-0.927-4.474l-0.27-1.337c-0.202 0.581-0.554 1.52-0.531 1.479 0 0-1.262 3.441-1.594 4.332zM9.723 18.702c-1.648-4.573-5.284-6.991-9.723-8.109l0.053-0.322h6.453c0.87 0.034 1.573 0.326 1.815 1.308z"/> </symbol><symbol viewBox="0 0 1056 1024" id="icon-mail">   <path d="M51.422 112.431h953.156c21.814 0 39.497 17.683 39.497 39.497v0 720.144c0 21.814-17.683 39.497-39.497 39.497v0h-953.156c-21.814 0-39.497-17.683-39.497-39.497s17.683-39.497 39.497-39.497h913.868v-641.149h-874.371v558.811c0 21.814-17.683 39.497-39.497 39.497s-39.497-17.683-39.497-39.497v0-598.309c0-21.814 17.683-39.497 39.497-39.497v0z"/> <path d="M494.041 464.352c3.735-8.091 9.717-14.61 17.144-18.91l0.201-0.107 454.949-306.364c5.976-3.827 13.265-6.099 21.086-6.099 21.814 0 39.497 17.683 39.497 39.497 0 15.736-9.202 29.323-22.519 35.672l-0.239 0.102-454.74 306.573c-5.533 3.134-12.151 4.982-19.202 4.982-21.814 0-39.497-17.683-39.497-39.497 0-5.734 1.222-11.182 3.419-16.099l-0.1 0.251z"/> <path d="M561.123 461.009c-3.769-8.007-9.744-14.453-17.142-18.7l-0.203-0.108-454.949-306.573c-5.462-3.034-11.979-4.82-18.913-4.82-21.821 0-39.511 17.69-39.511 39.511 0 14.887 8.234 27.852 20.396 34.588l0.203 0.103 454.74 306.364c5.533 3.134 12.151 4.982 19.202 4.982 21.814 0 39.497-17.683 39.497-39.497 0-5.734-1.222-11.182-3.419-16.099l0.1 0.251z"/> </symbol><symbol viewBox="0 0 1024 1024" id="icon-mobile-search">   <path d="M72.835 1011.488l291.197-291.197c69.673 56.405 158.206 90.367 254.632 90.367 223.486 0 405.33-181.844 405.33-405.33s-181.842-405.328-405.328-405.328-405.33 181.844-405.33 405.33c0 96.425 33.962 184.958 90.367 254.632l-291.197 291.197c-8.32 8.32-12.502 19.242-12.502 30.166s4.182 21.846 12.502 30.166c16.682 16.682 43.648 16.682 60.329-0.002zM298.669 405.33c0-176.468 143.529-319.997 319.997-319.997s319.997 143.529 319.997 319.997-143.529 319.997-319.997 319.997-319.997-143.531-319.997-319.997z"/> </symbol><symbol viewBox="0 0 576 1024" id="icon-next">   <path d="M552.828 481.841l-469.329-469.329c-16.682-16.682-43.648-16.682-60.329 0s-16.682 43.648 0 60.329l439.164 439.164-439.164 439.164c-16.682 16.682-16.682 43.648 0 60.329 8.32 8.32 19.242 12.502 30.166 12.502 10.922 0 21.846-4.182 30.166-12.502l469.329-469.329c16.68-16.68 16.68-43.646-0.002-60.327z"/> </symbol><symbol viewBox="0 0 1024 1024" id="icon-phone">   <path d="M997.13 789.961l-207.261-138.219c-26.302-17.399-61.559-11.674-81.004 13.156l-60.373 77.624c-7.759 10.23-21.863 13.198-33.087 6.963l-11.484-6.331c-38.070-20.751-85.439-46.585-180.879-142.059s-121.326-142.879-142.077-180.879l-6.297-11.484c-6.321-11.222-3.409-25.386 6.825-33.207l77.572-60.355c24.82-19.447 30.553-54.694 13.174-81.004l-138.219-207.261c-17.811-26.792-53.546-34.835-81.12-18.259l-86.669 52.062c-27.232 16.010-47.211 41.938-55.748 72.351-31.209 113.715-7.731 309.97 281.37 599.105 229.974 229.956 401.178 291.797 518.853 291.797 27.082 0.116 54.058-3.407 80.202-10.476 30.419-8.527 56.352-28.508 72.351-55.748l52.114-86.617c16.6-27.58 8.561-63.337-18.243-81.158zM985.97 853.609l-51.994 86.669c-11.488 19.661-30.14 34.117-52.046 40.34-104.978 28.822-288.383 4.949-565.932-272.6s-301.419-460.938-272.598-565.932c6.231-21.933 20.705-40.608 40.39-52.114l86.669-51.994c11.964-7.199 27.474-3.709 35.203 7.917l138.102 207.243c7.547 11.412 5.067 26.708-5.699 35.153l-77.59 60.355c-23.612 18.055-30.355 50.724-15.818 76.653l6.161 11.194c21.809 39.998 48.923 89.757 147.912 188.73 98.989 98.971 148.732 126.087 188.712 147.894l11.21 6.177c25.926 14.536 58.597 7.795 76.653-15.818l60.355-77.59c8.447-10.76 23.736-13.238 35.153-5.699l207.243 138.219c11.634 7.723 15.124 23.241 7.915 35.203z"/> <path d="M580.236 170.755c160.138 0.178 289.911 129.953 290.091 290.091 0 9.425 7.639 17.063 17.063 17.063s17.063-7.639 17.063-17.063c-0.198-178.979-145.238-324.022-324.218-324.218-9.425 0-17.063 7.639-17.063 17.063s7.639 17.063 17.063 17.063z"/> <path d="M580.236 273.139c103.617 0.122 187.584 84.090 187.706 187.706 0 9.425 7.641 17.063 17.063 17.063 9.425 0 17.063-7.639 17.063-17.063-0.142-122.458-99.377-221.693-221.833-221.833-9.425 0-17.063 7.639-17.063 17.063s7.639 17.063 17.063 17.063z"/> <path d="M580.236 375.524c47.097 0.056 85.263 38.222 85.321 85.321 0 9.425 7.641 17.063 17.063 17.063s17.063-7.639 17.063-17.063c-0.076-65.938-53.51-119.374-119.448-119.448-9.425 0-17.063 7.639-17.063 17.063s7.639 17.063 17.063 17.063z"/> </symbol><symbol viewBox="0 0 34 32" id="icon-pinterest"> <path d="M1.356 15.647c0 6.24 3.781 11.6 9.192 13.957-0.043-1.064-0.008-2.341 0.267-3.499 0.295-1.237 1.976-8.303 1.976-8.303s-0.491-0.973-0.491-2.411c0-2.258 1.319-3.945 2.962-3.945 1.397 0 2.071 1.041 2.071 2.288 0 1.393-0.895 3.477-1.356 5.408-0.385 1.616 0.817 2.935 2.424 2.935 2.909 0 4.869-3.708 4.869-8.101 0-3.34-2.267-5.839-6.39-5.839-4.658 0-7.56 3.447-7.56 7.297 0 1.328 0.394 2.264 1.012 2.989 0.284 0.333 0.324 0.467 0.221 0.849-0.074 0.28-0.243 0.955-0.313 1.223-0.102 0.386-0.417 0.524-0.769 0.381-2.145-0.869-3.145-3.201-3.145-5.822 0-4.329 3.679-9.519 10.975-9.519 5.863 0 9.721 4.21 9.721 8.729 0 5.978-3.349 10.443-8.285 10.443-1.658 0-3.217-0.889-3.751-1.899 0 0-0.892 3.511-1.080 4.189-0.325 1.175-0.963 2.349-1.546 3.264 1.381 0.405 2.84 0.625 4.352 0.625 8.48 0 15.355-6.822 15.355-15.238s-6.876-15.238-15.355-15.238c-8.48 0-15.356 6.822-15.356 15.238z"/> </symbol><symbol viewBox="0 0 1056 1024" id="icon-pound">   <path d="M528 0c-283.167 0-512 228.833-512 512s228.833 512 512 512 512-228.833 512-512-228.833-512-512-512zM528 938.945c-235.311 0-426.945-191.634-426.945-426.945s191.634-426.945 426.945-426.945 426.945 191.634 426.945 426.945-191.634 426.945-426.945 426.945z"/> <path d="M710.857 671.033c-11.076-16.927-34.064-22.361-50.573-10.867-47.229 33.228-110.55 1.254-116.402-0.418-21.734-5.642-49.737-4.598-76.904-0.836 3.971-8.986 7.314-18.181 10.449-28.003 8.359-26.331 12.748-53.081 13.166-78.367h77.74c20.271 0 36.571-16.3 36.571-36.571s-16.3-36.571-36.571-36.571h-89.025c0-0.209-0.209-0.627-0.209-0.836-17.345-46.811-7.105-127.896 43.886-135.001 68.127-9.195 80.666 61.44 80.875 63.739 1.672 18.599 17.345 33.019 36.362 33.019 35.318 0 36.78-33.646 36.153-41.169v0c-0.418-3.344-17.972-136.255-153.6-128.731-125.179 7.105-131.239 169.273-120.372 208.98h-26.122c-20.271 0-36.571 16.3-36.571 36.571s16.3 36.571 36.571 36.571h41.169c-1.463 54.335-28.839 114.312-60.813 134.792-15.464 10.031-22.779 30.72-13.375 46.602 14.211 23.615 40.751 20.271 44.513 18.808 40.542-13.584 109.923-29.466 137.509-22.152 5.433 1.463 94.668 46.811 174.707-9.195 16.718-11.494 21.943-33.437 10.867-50.364z"/> </symbol><symbol viewBox="0 0 1056 1024" id="icon-price">   <path d="M528 0c-282.77 0-512 229.23-512 512s229.23 512 512 512c282.77 0 512-229.23 512-512v0c-0.33-282.637-229.363-511.67-511.968-512h-0.032zM528 950.802c-242.344 0-438.802-196.458-438.802-438.802s196.458-438.802 438.802-438.802c242.344 0 438.802 196.458 438.802 438.802v0c-0.22 242.255-196.547 438.581-438.781 438.802h-0.021z"/> <path d="M545.428 474.045v0c-87.915-15.492-132.454-38.729-132.454-66.808s51.51-54.221 120.061-54.221c73.392 0 111.153 37.374 118.511 62.548 3.78 16.498 18.334 28.62 35.719 28.62 20.213 0 36.599-16.386 36.599-36.599 0-4.503-0.813-8.816-2.301-12.8l0.083 0.253c-13.943-47.637-64.678-97.985-146.009-111.54v-47.637c0-20.213-16.386-36.599-36.599-36.599s-36.599 16.386-36.599 36.599v0 45.507c-98.372 8.133-162.663 56.738-162.663 125.87 0 104.956 140.2 129.549 193.646 138.844v0c132.26 23.238 132.26 58.094 132.26 70.1 0 26.142-45.894 54.608-120.061 54.608-88.109 0-148.72-35.244-154.917-67.776-2.215-18.288-17.643-32.32-36.348-32.32-20.213 0-36.599 16.386-36.599 36.599 0 2.877 0.332 5.676 0.96 8.362l-0.049-0.248c11.231 65.259 85.785 114.832 183.77 126.064v46.669c0 20.213 16.386 36.599 36.599 36.599s36.599-16.386 36.599-36.599v0-45.7c96.823-8.52 162.663-58.094 162.663-126.257-0.194-95.855-102.632-126.257-192.871-142.136z"/> </symbol><symbol viewBox="0 0 26 28" id="icon-print"> <path d="M0 21.5v-6.5q0-1.234 0.883-2.117t2.117-0.883h1v-8.5q0-0.625 0.438-1.062t1.062-0.438h10.5q0.625 0 1.375 0.313t1.188 0.75l2.375 2.375q0.438 0.438 0.75 1.188t0.313 1.375v4h1q1.234 0 2.117 0.883t0.883 2.117v6.5q0 0.203-0.148 0.352t-0.352 0.148h-3.5v2.5q0 0.625-0.438 1.062t-1.062 0.438h-15q-0.625 0-1.062-0.438t-0.438-1.062v-2.5h-3.5q-0.203 0-0.352-0.148t-0.148-0.352zM6 24h14v-4h-14v4zM6 14h14v-6h-2.5q-0.625 0-1.062-0.438t-0.438-1.062v-2.5h-10v10zM22 15q0 0.406 0.297 0.703t0.703 0.297 0.703-0.297 0.297-0.703-0.297-0.703-0.703-0.297-0.703 0.297-0.297 0.703z"/> </symbol><symbol viewBox="0 0 1056 1024" id="icon-printer">   <path d="M328 904h400c16.569 0 30-13.431 30-30s-13.431-30-30-30v0h-400c-16.569 0-30 13.431-30 30s13.431 30 30 30v0z"/> <path d="M328 784h400c16.569 0 30-13.431 30-30s-13.431-30-30-30v0h-400c-16.569 0-30 13.431-30 30s13.431 30 30 30v0z"/> <path d="M970 286h-96v-216c0-38.66-31.34-70-70-70v0h-552c-38.66 0-70 31.34-70 70v0 216h-96c-38.66 0-70 31.34-70 70v0 432c0 38.66 31.34 70 70 70v0h96v96c0 38.66 31.34 70 70 70v0h552c38.66 0 70-31.34 70-70v0-96h96c38.66 0 70-31.34 70-70v0-432c0-38.66-31.34-70-70-70v0zM242 70c0-5.523 4.477-10 10-10v0h552c5.523 0 10 4.477 10 10v0 216h-572zM814 828v126c0 5.523-4.477 10-10 10v0h-552c-5.523 0-10-4.477-10-10v0-290h572zM980 788c0 5.523-4.477 10-10 10v0h-96v-164c0-16.569-13.431-30-30-30v0h-632c-16.569 0-30 13.431-30 30v0 164h-96c-5.523 0-10-4.477-10-10v0-432c0-5.523 4.477-10 10-10v0h884c5.523 0 10 4.477 10 10v0z"/> <path d="M910 446c0 16.569-13.431 30-30 30s-30-13.431-30-30c0-16.569 13.431-30 30-30v0c16.569 0 30 13.431 30 30v0z"/> </symbol><symbol viewBox="0 0 1024 1024" id="icon-refund">   <path d="M896 618.666c-41.644 0-128.008 23.206-171.77 35.778-5.804-61.224-84.248-82.896-165.312-99.362-37-7.5-64.52-20.77-91.146-33.604-32.834-15.854-63.854-30.812-105.104-30.812-47.25 0-90.278 9.656-114.57 16.342-6.424-22.338-24.656-40.348-48.826-45.174l-173.752-34.75c-6.27-1.23-12.77 0.376-17.708 4.416-4.936 4.062-7.812 10.104-7.812 16.5v341.334c0 11.792 9.542 21.334 21.334 21.334h133.666c26.33 0 48.768-16.764 58.424-40.294 47.75 22.764 268.686 125.626 362.576 125.626 82.75 0 253.062-83.73 365.75-139.126 29.416-14.458 53.73-26.416 69.5-33.334 7.75-3.414 12.75-11.082 12.75-19.54 0-50.25-52.624-85.334-128-85.334zM207.834 527.604l-31.73 222.084c-1.478 10.438-10.562 18.312-21.104 18.312h-112.334v-293.98l148.23 29.646c11.104 2.23 18.542 12.73 16.938 23.938zM922.916 718.584c-102.5 50.396-274.082 134.75-346.916 134.75-77.604 0-281.376-90.854-353.334-125.854-0.086-0.042-0.18-0.026-0.266-0.068l25.114-175.796c15.518-4.86 63.026-18.282 115.152-18.282 31.5 0 55.812 11.73 86.584 26.562 27.626 13.334 58.958 28.438 101.166 37.020 92.708 18.792 132.25 38.062 132.25 64.416 0 5.208-1.584 8.416-5.646 11.438-13.5 10.104-66.458 27.166-265.626-31.896-11.25-3.354-23.166 3.126-26.52 14.396-3.354 11.292 3.104 23.166 14.396 26.52 98.25 29.126 173.396 43.646 226.646 43.646 34.73 0 60.146-6.166 76.626-18.48 1.424-1.062 2.468-2.364 3.766-3.51 1.328-0.144 2.636 0.016 3.964-0.386 37.728-11.602 144.604-41.726 185.728-41.726 34.792 0 71.396 10.584 82.188 30.416-14.896 7-33.75 16.27-55.272 26.834z"/> <path d="M789.334 512c105.876 0 192-86.126 192-192s-86.126-192-192-192-192 86.126-192 192 86.124 192 192 192zM789.334 170.666c82.334 0 149.334 67 149.334 149.334s-67 149.334-149.334 149.334-149.334-67-149.334-149.334 67-149.334 149.334-149.334z"/> <path d="M756.208 275.084l11.792-5.896v136.146c0 11.792 9.542 21.334 21.334 21.334s21.334-9.542 21.334-21.334v-170.666c0-7.396-3.834-14.25-10.126-18.146-6.27-3.938-14.146-4.23-20.75-0.938l-42.666 21.334c-10.542 5.27-14.812 18.084-9.542 28.626 5.27 10.54 18.104 14.748 28.624 9.54z"/> </symbol><symbol viewBox="0 0 24 24" id="icon-remove"><path d="M19 13H5v-2h14v2z"/></symbol><symbol viewBox="0 0 1056 1024" id="icon-reviews">   <path d="M116.291 282.691c-20.958 0-37.948 16.99-37.948 37.948v0 667.608c0 20.958 16.99 37.948 37.948 37.948s37.948-16.99 37.948-37.948v0-667.608c0-20.958-16.99-37.948-37.948-37.948v0z"/> <path d="M974.643 564.793c0.002-0.238 0.003-0.52 0.003-0.801 0-29.42-11.805-56.083-30.937-75.511l0.013 0.014c20.977-21.238 33.933-50.439 33.933-82.666 0-0.161 0-0.322-0.001-0.483v0.025c0-60.235-45.779-120.471-133.12-120.471h-217.65c25.7-60.235 57.224-158.017 32.527-220.863-9.988-27.541-31.402-48.823-58.358-58.42l-0.672-0.209c-92.16-32.728-155.407 46.18-216.445 122.478-47.987 60.235-102.199 127.297-176.088 159.423-12.576 6.356-21.048 19.177-21.048 33.977 0 20.311 15.956 36.894 36.017 37.9l0.090 0.004c0.804 0.062 1.74 0.098 2.685 0.098 4.813 0 9.411-0.92 13.627-2.595l-0.25 0.087c91.156-40.157 154.202-118.262 204.8-180.706 63.046-78.707 94.77-111.636 131.915-98.384 6.761 1.849 12.015 6.97 14.017 13.511l0.037 0.142c15.26 38.952-14.657 129.907-44.775 193.556h-40.157c-20.958 0-37.948 16.99-37.948 37.948s16.99 37.948 37.948 37.948h341.333c40.759-1.606 55.416 23.693 55.416 44.574 0.001 0.095 0.001 0.208 0.001 0.32 0 11.719-4.759 22.327-12.449 29.997l-0.001 0.001c-10.982 9.434-25.372 15.177-41.104 15.177-1.362 0-2.714-0.043-4.055-0.128l0.183 0.009c-20.958 0-37.948 16.99-37.948 37.948s16.99 37.948 37.948 37.948v0c1.493-0.127 3.231-0.199 4.986-0.199 14.705 0 28.227 5.067 38.914 13.55l-0.129-0.099c6.557 6.104 10.645 14.784 10.645 24.419 0 0.168-0.001 0.336-0.004 0.504v-0.025c0 21.082-18.472 52.405-69.672 52.405-20.958 0-37.948 16.99-37.948 37.948s16.99 37.948 37.948 37.948v0c1.489-0.118 3.225-0.186 4.976-0.186 15.261 0 29.324 5.128 40.56 13.755l-0.158-0.117c6.668 5.914 10.848 14.504 10.848 24.069 0 0.22-0.002 0.44-0.007 0.66l0.001-0.033c0 20.078-20.078 52.605-71.278 52.605-0.826-0.064-1.788-0.1-2.759-0.1-20.958 0-37.948 16.99-37.948 37.948s16.99 37.948 37.948 37.948c0.971 0 1.933-0.036 2.885-0.108l-0.127 0.008c1.303-0.107 2.82-0.168 4.351-0.168 13.638 0 26.147 4.839 35.901 12.894l-0.096-0.077c6.329 6.232 10.25 14.893 10.25 24.47 0 0.291-0.004 0.582-0.011 0.872l0.001-0.043c0 21.283-17.468 52.806-65.456 52.806h-575.849c-20.958 0-37.948 16.99-37.948 37.948s16.99 37.948 37.948 37.948h576.050c91.758 0 140.549-66.259 140.549-128.703 0-0.086 0-0.188 0-0.29 0-27.119-9.793-51.95-26.035-71.151l0.134 0.162c28.649-22.248 47.182-56.347 48.185-94.81l0.003-0.161c0-0.036 0-0.078 0-0.12 0-28.784-11.322-54.925-29.755-74.21l0.039 0.041c25.826-22.554 42.167-55.41 42.566-92.090l0.001-0.070z"/> </symbol><symbol viewBox="0 0 32 32" id="icon-rss">  <path d="M23.917 18.462v-2.962c0-0.82-0.672-1.492-1.492-1.492h-0.735c-0.42 0-0.756-0.336-0.756-0.735 0-2.857-2.332-5.189-5.189-5.189h-2.227c-2.437 0-4.433 1.996-4.433 4.433v5.946c0 2.437 1.996 4.454 4.433 4.454h5.946c2.435 0 4.453-2.018 4.453-4.455v0zM13.516 17.706h5.189c0.421 0 0.756 0.337 0.756 0.756 0 0.4-0.336 0.735-0.756 0.735h-5.189c-0.399 0-0.735-0.336-0.735-0.735 0-0.42 0.336-0.756 0.735-0.756v0zM17.067 12.516c0 0.42-0.315 0.756-0.735 0.756h-2.816c-0.399 0-0.735-0.336-0.735-0.756 0-0.399 0.336-0.735 0.735-0.735h2.816c0.42 0 0.735 0.336 0.735 0.735v0z"/> <path d="M16 1c8.271 0 15 6.729 15 15s-6.729 15-15 15-15-6.729-15-15 6.729-15 15-15zM16 0c-8.836 0-16 7.163-16 16s7.163 16 16 16c8.836 0 16-7.163 16-16s-7.164-16-16-16v0z"/> </symbol><symbol viewBox="0 0 1056 1024" id="icon-search">   <path d="M636.588 806.93c-222.782-0.202-403.305-180.849-403.305-403.66 0-111.28 45.029-212.043 117.861-285.062l-0.008 0.008c73.020-73.045 173.91-118.226 285.353-118.226 222.835 0 403.479 180.644 403.479 403.479 0 111.393-45.141 212.243-118.128 285.254l0.001-0.001c-72.652 73.020-173.216 118.209-284.335 118.209-0.323 0-0.646 0-0.968-0.001h0.050zM636.588 75.359c-181.193 0.023-328.070 146.914-328.070 328.111 0 181.21 146.9 328.111 328.111 328.111s328.111-146.9 328.111-328.111c0-90.615-36.733-172.651-96.121-232.029l-0.001-0.001c-59.102-59.354-140.884-96.082-231.246-96.082-0.276 0-0.551 0-0.827 0.001h0.043z"/> <path d="M859.448 441.144c-20.807 0-37.675-16.868-37.675-37.675v0c-3.374-99.736-85.037-179.306-185.285-179.306s-181.911 79.57-185.277 178.998l-0.008 0.308c0.063 0.82 0.1 1.775 0.1 2.739 0 20.807-16.868 37.675-37.675 37.675s-37.675-16.868-37.675-37.675c0-0.964 0.036-1.919 0.107-2.865l-0.008 0.126c0-143.889 116.645-260.535 260.535-260.535s260.535 116.645 260.535 260.535v0c0 20.807-16.868 37.675-37.675 37.675v0z"/> <path d="M146.216 1024.009c-0.102 0-0.224 0-0.345 0-35.133 0-66.938-14.246-89.955-37.276l-2.592-2.592c-23.045-23.14-37.292-55.056-37.292-90.3s14.247-67.161 37.296-90.305l-0.004 0.004 167.643-167.843c6.906-7.007 16.501-11.347 27.11-11.347 21.019 0 38.058 17.039 38.058 38.058 0 10.41-4.18 19.845-10.953 26.716l0.004-0.005-168.64 168.042c-9.384 9.499-15.181 22.561-15.181 36.977s5.796 27.478 15.186 36.982l-0.005-0.005 2.591 2.791c9.51 9.443 22.612 15.279 37.077 15.279s27.567-5.836 37.080-15.282l-0.003 0.003 167.643-167.843c6.67-6.096 15.588-9.83 25.379-9.83 20.807 0 37.675 16.868 37.675 37.675 0 9.79-3.734 18.709-9.857 25.408l0.026-0.029-167.643 167.444c-23.017 23.031-54.823 37.277-89.955 37.277-0.121 0-0.242 0-0.363-0.001h0.019z"/> </symbol><symbol viewBox="0 0 1262 1024" id="icon-shop-cart">   <path d="M1083.792 736.732h-694.252c-18.038 0-33.877-11.659-39.376-28.597l-190.061-583.603-117.029-43.996c-21.338-8.139-32.337-32.117-24.198-53.675 8.139-21.338 32.117-32.337 53.455-24.198l135.507 51.255c11.879 4.4 20.898 14.079 24.858 25.957l186.762 573.704h631.558l100.53-417.739h-789.503c-22.878 0-41.576-18.478-41.576-41.576 0-22.878 18.698-41.576 41.576-41.576h842.298c12.759 0 24.858 5.719 32.557 15.838 7.919 9.899 10.779 23.098 7.699 35.417l-120.548 500.891c-4.4 18.698-21.118 31.897-40.256 31.897z"/> <path d="M1029.897 486.836h-597.022c-22.878 0-41.576-18.698-41.576-41.576s18.698-41.576 41.576-41.576h597.242c22.878 0 41.576 18.478 41.576 41.576-0.22 22.878-18.698 41.576-41.796 41.576z"/> <path d="M444.974 1024.024c-65.554 0-118.788-53.235-118.788-118.788s53.235-118.788 118.788-118.788 118.788 53.235 118.788 118.788c0 65.554-53.235 118.788-118.788 118.788zM444.974 869.379c-19.798 0-35.856 16.058-35.856 35.856 0 19.578 16.058 35.856 35.856 35.856s35.637-16.058 35.637-35.856c0.22-19.798-15.838-35.856-35.637-35.856z"/> <path d="M992.281 1024.024c-65.554 0-118.788-53.235-118.788-118.788s53.235-118.788 118.788-118.788c65.554 0 118.788 53.235 118.788 118.788 0.22 65.554-53.235 118.788-118.788 118.788zM992.281 869.379c-19.798 0-35.856 16.058-35.856 35.856 0 19.578 16.058 35.856 35.856 35.856s35.856-16.058 35.856-35.856c0-19.798-16.058-35.856-35.856-35.856z"/> </symbol><symbol viewBox="0 0 1024 1024" id="icon-shopping-basket">   <path d="M1001.738 378.432h-979.477c-12.288 0-22.262 9.974-22.262 22.262s9.974 22.262 22.262 22.262h979.477c12.288 0 22.262-9.974 22.262-22.262s-9.974-22.262-22.262-22.262z"/> <path d="M963.048 379.233c-11.754-3.206-24.131 3.74-27.337 15.627l-115.667 424.113c-7.88 28.94-34.37 49.196-64.422 49.196h-487.246c-30.052 0-56.542-20.258-64.468-49.196l-115.665-424.113c-3.206-11.931-15.494-18.833-27.291-15.671-11.887 3.249-18.877 15.494-15.627 27.337l115.667 424.159c13.179 48.307 57.299 82.009 107.386 82.009h487.246c50.087 0 94.207-33.702 107.386-82.009l115.667-424.113c3.249-11.846-3.742-24.088-15.629-27.339z"/> <path d="M479.81 115.041c-10.285-6.812-24.086-4.007-30.854 6.188l-178.086 267.13c-6.812 10.241-4.051 24.042 6.188 30.854 3.83 2.538 8.104 3.74 12.332 3.74 7.169 0 14.248-3.473 18.522-9.928l178.086-267.13c6.814-10.239 4.053-24.042-6.188-30.854z"/> <path d="M753.084 388.361l-178.086-267.13c-6.812-10.241-20.613-13-30.854-6.188s-13 20.613-6.188 30.854l178.086 267.13c4.318 6.455 11.353 9.928 18.566 9.928 4.274 0 8.548-1.202 12.288-3.74 10.241-6.812 13-20.615 6.188-30.854z"/> <path d="M511.999 467.476c-12.288 0-22.262 9.974-22.262 22.262v311.651c0 12.288 9.974 22.262 22.262 22.262s22.262-9.974 22.262-22.262v-311.651c0-12.288-9.974-22.262-22.262-22.262z"/> <path d="M670.987 467.699c-12.111-1.693-23.464 6.722-25.2 18.877l-44.521 311.651c-1.736 12.198 6.722 23.464 18.877 25.2 1.069 0.177 2.137 0.223 3.162 0.223 10.952 0 20.435-8.014 22.038-19.1l44.521-311.653c1.736-12.198-6.722-23.462-18.877-25.198z"/> <path d="M422.734 798.227l-44.521-311.651c-1.736-12.198-12.956-20.746-25.2-18.877-12.154 1.736-20.613 13.046-18.877 25.2l44.521 311.651c1.603 11.086 11.13 19.1 22.038 19.1 1.025 0 2.093-0.090 3.162-0.223 12.154-1.736 20.613-13.046 18.877-25.2z"/> <path d="M829.707 468.321c-11.664-3.249-24.131 3.473-27.514 15.316l-89.044 311.651c-3.339 11.798 3.473 24.131 15.316 27.514 2.047 0.578 4.097 0.845 6.144 0.845 9.706 0 18.609-6.367 21.37-16.161l89.044-311.651c3.339-11.798-3.473-24.129-15.316-27.514z"/> <path d="M310.85 795.289l-89.044-311.651c-3.383-11.843-15.805-18.522-27.514-15.316-11.843 3.383-18.699 15.717-15.316 27.514l89.044 311.651c2.805 9.794 11.71 16.161 21.37 16.161 2.003 0 4.051-0.267 6.144-0.845 11.843-3.383 18.701-15.715 15.316-27.514z"/> </symbol><symbol viewBox="0 0 26 28" id="icon-star"> <path d="M0 10.109q0-0.578 0.875-0.719l7.844-1.141 3.516-7.109q0.297-0.641 0.766-0.641t0.766 0.641l3.516 7.109 7.844 1.141q0.875 0.141 0.875 0.719 0 0.344-0.406 0.75l-5.672 5.531 1.344 7.812q0.016 0.109 0.016 0.313 0 0.328-0.164 0.555t-0.477 0.227q-0.297 0-0.625-0.187l-7.016-3.687-7.016 3.687q-0.344 0.187-0.625 0.187-0.328 0-0.492-0.227t-0.164-0.555q0-0.094 0.031-0.313l1.344-7.812-5.688-5.531q-0.391-0.422-0.391-0.75z"/> </symbol><symbol viewBox="0 0 32 32" id="icon-stumbleupon">  <mask id="stumbleupon-mask-2"> <use href="#path-1"/> </mask> <path d="M31.9250667,16.0373333 C31.9250667,24.8533333 24.7784,32 15.9624,32 C7.14666667,32 0,24.8533333 0,16.0373333 C0,7.2216 7.14666667,0.0749333333 15.9624,0.0749333333 C24.7784,0.0749333333 31.9250667,7.2216 31.9250667,16.0373333 Z M21.9205547,16.3600826 L21.9205547,18.9857015 C21.9205547,19.5214765 21.494073,19.9558236 20.968,19.9558236 C20.441927,19.9558236 20.0154453,19.5214765 20.0154453,18.9857015 L20.0154453,16.4101275 L18.1823358,16.9675798 L16.9525547,16.3839008 L16.9525547,18.9383327 C16.9717372,21.1844666 18.7659562,23 20.976146,23 C23.1984234,23 25,21.1651979 25,18.9019364 L25,16.3600826 L21.9205547,16.3600826 Z M16.9525547,14.2429415 L18.1823358,14.8266205 L20.0154453,14.2691683 L20.0154453,12.9736203 C19.9505401,10.7684323 18.1810219,9 16,9 C13.8268613,9 12.0618102,10.7555866 11.9845547,12.9492669 L11.9845547,18.8684839 C11.9845547,19.404259 11.558073,19.8386061 11.032,19.8386061 C10.505927,19.8386061 10.0794453,19.404259 10.0794453,18.8684839 L10.0794453,16.3600826 L7,16.3600826 L7,18.9019364 C7,21.1651979 8.80131387,23 11.0235912,23 C13.2264234,23 15.0119708,21.1965095 15.0429781,18.9608128 L15.0474453,13.114656 C15.0474453,12.578881 15.473927,12.1445339 16,12.1445339 C16.526073,12.1445339 16.9525547,12.578881 16.9525547,13.114656 L16.9525547,14.2429415 Z" id="stumbleupon-Fill-1" mask="url(#stumbleupon-mask-2)"/> </symbol><symbol viewBox="0 0 1056 1024" id="icon-truck">   <path d="M1007.597 743.889c-18.752 0-33.954-15.202-33.954-33.954v0-141.025c-3.068-51.111-21.793-97.329-51.393-134.503l0.373 0.484c-69.165-88.926-183.422-234.801-195.458-247.916-31.439-31.439-43.834-40.421-117.67-40.421h-460.8c-41.319 0-68.985 25.51-68.985 63.596s0 498.526 0 498.526h-67.728s0-457.746 0-498.526c-0.18-75.632 57.488-130.964 136.713-130.964h460.8c89.825 0 120.365 15.091 165.457 60.182 16.168 15.989 158.091 197.614 200.488 252.946 38.715 48.164 63.152 109.266 66.088 175.954l0.022 0.641v140.306c0.008 0.268 0.012 0.583 0.012 0.899 0 18.653-15.121 33.774-33.774 33.774-0.067 0-0.135 0-0.202-0.001h0.010z"/> <path d="M45.397 765.267h54.793c15.899-64.43 73.195-111.456 141.474-111.456s125.574 47.026 141.264 110.457l0.209 1h272.528c15.899-64.43 73.195-111.456 141.474-111.456s125.574 47.026 141.264 110.457l0.209 1h68.985c0.739-0.057 1.6-0.090 2.468-0.090 18.752 0 33.954 15.202 33.954 33.954s-15.202 33.954-33.954 33.954c-0.869 0-1.729-0.033-2.582-0.097l0.113 0.007h-68.985c-15.899 64.43-73.195 111.456-141.474 111.456s-125.574-47.026-141.264-110.457l-0.209-1h-272.528c-15.767 64.612-73.151 111.818-141.56 111.818-68.15 0-125.357-46.848-141.175-110.096l-0.212-1.003h-54.793c-17.66-1.326-31.486-15.98-31.486-33.864s13.826-32.538 31.372-33.857l0.113-0.007zM797.228 876.829c40.777-0.079 74.168-31.594 77.233-71.596l0.016-0.263c-0.457-1.698-0.719-3.648-0.719-5.659s0.262-3.961 0.754-5.817l-0.036 0.158c-3.085-40.316-36.556-71.86-77.395-71.86-42.862 0-77.608 34.746-77.608 77.608s34.746 77.608 77.608 77.608c0.051 0 0.103 0 0.154 0h-0.008zM241.753 876.829c42.961 0 77.788-34.827 77.788-77.788s-34.827-77.788-77.788-77.788c-42.961 0-77.788 34.827-77.788 77.788 0 0.063 0 0.126 0 0.19v-0.010c0.204 42.843 34.931 77.507 77.778 77.608h0.010z"/> <path d="M641.472 203.145v275.222h258.335c18.752 0 33.954 15.202 33.954 33.954s-15.202 33.954-33.954 33.954h-292.289c-18.752 0-33.954-15.202-33.954-33.954v0-309.176c0-18.752 15.202-33.954 33.954-33.954s33.954 15.202 33.954 33.954v0z"/> </symbol><symbol viewBox="0 0 32 32" id="icon-tumblr"> <path d="M23.852762,25.5589268 C23.2579209,25.8427189 22.1195458,26.089634 21.2697728,26.1120809 C18.7092304,26.1810247 18.2121934,24.3131275 18.1897466,22.9566974 L18.1897466,12.9951133 L24.6159544,12.9951133 L24.6159544,8.15140729 L18.2137967,8.15140729 L18.2137967,0 L13.5256152,0 C13.4486546,0 13.3139736,0.0673405008 13.2963368,0.238898443 C13.0221648,2.73370367 11.8533261,7.11243957 7,8.86168924 L7,12.9951133 L10.2387574,12.9951133 L10.2387574,23.4521311 C10.2387574,27.0307977 12.8794671,32.1166089 19.8508122,31.9979613 C22.2013164,31.9578777 24.8131658,30.9718204 25.3919735,30.1236507 L23.852762,25.5589268"/> </symbol><symbol viewBox="0 0 1056 1024" id="icon-twitter">   <path d="M527.877 0.103c0.036 0 0.080 0 0.123 0 282.713 0 511.897 229.184 511.897 511.897s-229.184 511.897-511.897 511.897c-282.713 0-511.897-229.184-511.897-511.897 0-141.377 57.313-269.369 149.972-362.007l0.001-0.001c92.553-92.607 220.441-149.889 361.709-149.889 0.032 0 0.065 0 0.097 0h-0.005zM861.457 178.419c-85.364-85.301-203.26-138.056-333.477-138.056-260.562 0-471.788 211.227-471.788 471.788s211.227 471.788 471.788 471.788c260.506 0 471.698-211.137 471.788-471.622v-0.009c0.001-0.288 0.001-0.63 0.001-0.972 0-130.088-52.871-247.827-138.296-332.902l-0.016-0.016z"/> <path d="M789.2 352.704c-18.033 7.889-38.964 13.768-60.846 16.621l-1.177 0.125c22.227-13.17 38.971-33.6 47.127-57.965l0.218-0.75c-19.682 11.72-42.571 20.684-66.925 25.606l-1.404 0.237c-19.68-20.933-47.551-33.97-78.467-33.97-58.981 0-106.88 47.452-107.602 106.262l-0.001 0.068c0.18 8.632 1.301 16.912 3.263 24.861l-0.162-0.775c-88.827-4.503-167.043-46.427-219.77-110.199l-0.411-0.512c-9.028 15.194-14.452 33.455-14.678 52.965l-0.001 0.065c0.175 36.685 19.095 68.914 47.667 87.619l0.401 0.247c-17.846-0.348-34.501-5.134-49.004-13.295l0.522 0.27v1.447c-0.004 0.315-0.006 0.688-0.006 1.060 0 13.287 2.622 25.962 7.378 37.535l-0.239-0.658c13.626 33.393 42.694 57.984 78.084 65.112l0.685 0.115c-8.479 2.448-18.224 3.879-28.297 3.928h-0.027c-7.157-0.023-14.108-0.85-20.785-2.397l0.627 0.122c14.386 42.583 53.414 72.935 99.708 74.218l0.149 0.003c-36.233 28.115-82.349 45.071-132.426 45.071-0.179 0-0.359 0-0.538-0.001h0.028c-8.787 0-16.953-0.62-25.74-1.447 46.617 29.695 103.428 47.332 164.358 47.344h0.003c167.566 0 270.937-115.88 297.917-236.411 4.453-19.13 7.013-41.1 7.029-63.666v-14.173c20.914-15.191 38.593-33.297 52.856-53.944l0.483-0.74z"/> </symbol><symbol viewBox="0 0 962 1024" id="icon-user">   <path d="M399.949 509.27c18.074 7.907 38.972-0.377 46.879-18.262s-0.377-38.972-18.262-46.879c-104.302-45.75-141.202-154.381-123.693-237.785 17.697-84.533 82.839-134.99 174.15-134.99 58.552 0 104.113 19.204 135.743 56.858 38.031 45.75 47.256 109.573 39.348 152.875-17.886 97.712-83.592 176.032-206.909 246.634-17.133 9.79-22.969 31.441-13.179 48.574 6.589 11.484 18.639 17.886 30.876 17.886 6.025 0 12.049-1.506 17.697-4.707 89.993-51.398 212.933-138.002 241.739-295.584 9.978-55.163 1.694-143.462-54.598-211.051-31.818-38.031-90.37-82.839-190.717-82.839-150.051 0-224.229 99.030-243.621 191.659-23.534 111.456 25.416 256.424 164.548 317.611z"/> <path d="M916.185 662.898c-40.101-104.678-212.18-170.761-231.76-177.915-17.509-6.589-36.901 1.694-44.62 18.45-35.018 76.061-94.511 121.434-159.465 121.434-64.577 0-121.999-44.243-157.394-121.434-7.719-16.756-27.299-25.040-44.62-18.45-19.58 7.154-191.659 73.237-231.76 177.727-25.040 65.33-23.91 135.178-22.781 196.742 0.188 11.296 0.377 22.404 0.377 32.947 0 19.58 16.003 35.583 35.583 35.583s35.583-16.003 35.583-35.583c0-10.92-0.188-22.404-0.377-34.265-0.941-55.163-2.071-117.669 18.074-170.008 20.145-52.527 106.561-100.348 160.971-124.635 48.574 83.592 123.693 132.542 206.344 132.542 0 0 0 0 0 0 83.78 0 159.653-48.95 208.227-132.542 54.41 24.287 141.014 72.107 160.971 124.823 15.438 40.101 23.722 129.341 25.040 264.519h-823.116c-19.58 0-35.583 16.003-35.583 35.583s16.003 35.583 35.583 35.583h859.076c19.58 0 35.583-16.003 35.583-35.583-0.188-106.184-3.201-255.671-29.935-325.519z"/> </symbol><symbol viewBox="0 0 1056 1024" id="icon-verified">   <path d="M890.038 149.96c-96.704-96.702-225.278-149.96-362.038-149.96-136.762 0-265.338 53.258-362.040 149.96-96.704 96.704-149.96 225.28-149.96 362.040s53.256 265.334 149.96 362.038c96.704 96.704 225.278 149.962 362.040 149.962 136.76 0 265.334-53.258 362.038-149.962s149.962-225.278 149.962-362.038-53.258-265.334-149.962-362.040zM528 964c-249.234 0-452-202.766-452-452s202.766-452 452-452 452 202.766 452 452-202.766 452-452 452z"/> <path d="M772.61 347.718c-11.714-11.712-30.71-11.712-42.424 0.002l-264.918 264.918-139.454-139.454c-11.714-11.714-30.71-11.714-42.426 0s-11.716 30.71 0 42.426l160.666 160.666c5.858 5.858 13.536 8.786 21.212 8.786s15.356-2.93 21.212-8.786l286.132-286.132c11.716-11.714 11.716-30.71 0-42.426z"/> </symbol><symbol viewBox="0 0 1056 1024" id="icon-warrenty">   <path d="M529.649 719.902c-200.643 0-363.297-162.654-363.297-363.297s162.654-363.297 363.297-363.297c200.644 0 363.297 162.654 363.297 363.297 0 0.157 0 0.313 0 0.469v-0.024c-0.253 200.452-162.81 362.852-363.297 362.852v0zM529.649 38.274c-176.055 0-318.776 142.721-318.776 318.776s142.721 318.776 318.776 318.776c176.055 0 318.776-142.721 318.776-318.776v0c0-176.055-142.721-318.776-318.776-318.776v0z"/> <path d="M529.649 578.768c-122.943 0-222.609-99.665-222.609-222.609s99.665-222.609 222.609-222.609c122.943 0 222.609 99.665 222.609 222.609v0c0 122.943-99.665 222.609-222.609 222.609v0zM529.649 178.072c-98.355 0-178.087 79.732-178.087 178.087s79.732 178.087 178.087 178.087c98.355 0 178.087-79.732 178.087-178.087v0c-0.757-97.779-80.197-176.751-178.082-176.751-0.002 0-0.003 0-0.005 0v0z"/> <path d="M337.76 1030.663c-0.006 0-0.014 0-0.021 0-7.712 0-14.525-3.844-18.629-9.721l-0.049-0.074-75.242-115.311-137.572-3.117c-8.025-0.023-15.008-4.465-18.643-11.021l-0.056-0.109c-1.796-3.139-2.856-6.9-2.856-10.908s1.059-7.769 2.913-11.017l-0.058 0.109 163.395-296.96c3.907-6.919 11.212-11.514 19.59-11.514 12.383 0 22.422 10.039 22.422 22.422 0 4.005-1.050 7.765-2.89 11.020l0.058-0.112-146.031 262.678 112.64 2.671c7.401 0.22 13.869 4.019 17.759 9.718l0.049 0.077 61.885 94.386 145.586-263.123c4.025-6.722 11.269-11.153 19.547-11.153 3.928 0 7.624 0.998 10.847 2.753l-0.119-0.059c6.99 3.846 11.648 11.163 11.648 19.568 0 3.927-1.017 7.617-2.802 10.82l0.058-0.113-163.84 295.179c-3.823 6.54-10.727 10.915-18.669 11.13l-0.030 0.001z"/> <path d="M717.086 1030.663v0c-7.972-0.216-14.876-4.591-18.642-11.025l-0.057-0.105-163.84-295.179c-1.782-3.143-2.832-6.903-2.832-10.908 0-12.383 10.039-22.422 22.422-22.422 8.378 0 15.683 4.595 19.531 11.402l0.058 0.112 146.031 263.123 61.44-94.386c4.023-5.893 10.684-9.728 18.244-9.795h0.010l112.195-2.671-145.586-262.678c-1.895-3.167-3.015-6.986-3.015-11.066 0-8.26 4.591-15.448 11.36-19.152l0.114-0.057c3.104-1.696 6.799-2.694 10.728-2.694 8.279 0 15.523 4.431 19.49 11.050l0.057 0.103 163.84 295.179c1.684 3.165 2.672 6.921 2.672 10.908s-0.989 7.743-2.734 11.036l0.062-0.128c-3.898 6.663-11 11.080-19.137 11.13h-0.007l-137.572 3.117-75.242 115.311c-4.056 5.96-10.808 9.823-18.462 9.823-0.397 0-0.791-0.010-1.182-0.031l0.055 0.002z"/> </symbol><symbol viewBox="0 0 1056 1024" id="icon-x-mark">   <path d="M528 1024c-282.32 0-512-229.68-512-512s229.68-512 512-512 512 229.68 512 512-229.68 512-512 512zM528 73.141c-241.984 0-438.859 196.875-438.859 438.859s196.875 438.859 438.859 438.859 438.859-196.875 438.859-438.859-196.875-438.859-438.859-438.859z"/> <path d="M710.859 731.43c-9.359 0-18.719-3.57-25.859-10.719l-365.711-365.711c-14.289-14.289-14.289-37.43 0-51.711 14.281-14.281 37.43-14.289 51.711 0l365.711 365.711c14.289 14.289 14.289 37.43 0 51.711-7.141 7.148-16.492 10.719-25.852 10.719z"/> <path d="M345.141 731.43c-9.359 0-18.711-3.57-25.852-10.719-14.289-14.281-14.289-37.43 0-51.711l365.711-365.711c14.289-14.289 37.43-14.289 51.711 0 14.281 14.281 14.289 37.43 0 51.711l-365.711 365.711c-7.141 7.148-16.5 10.719-25.859 10.719z"/> </symbol><symbol viewBox="0 0 32 32" id="icon-youtube"> <path d="M31.6634051,8.8527593 C31.6634051,8.8527593 31.3509198,6.64879843 30.3919217,5.67824658 C29.1757339,4.40441487 27.8125088,4.39809002 27.1873503,4.32353816 C22.7118278,4 15.9983092,4 15.9983092,4 L15.984407,4 C15.984407,4 9.27104501,4 4.79536595,4.32353816 C4.17017613,4.39809002 2.80745205,4.40441487 1.59082583,5.67824658 C0.631890411,6.64879843 0.319843444,8.8527593 0.319843444,8.8527593 C0.319843444,8.8527593 0,11.4409393 0,14.0290881 L0,16.4554834 C0,19.0436008 0.319843444,21.6317495 0.319843444,21.6317495 C0.319843444,21.6317495 0.631890411,23.8357417 1.59082583,24.8062935 C2.80745205,26.0801566 4.40557339,26.0398591 5.11736986,26.1733699 C7.67602348,26.4187241 15.9913894,26.4946536 15.9913894,26.4946536 C15.9913894,26.4946536 22.7118278,26.4845401 27.1873503,26.1610333 C27.8125088,26.0864501 29.1757339,26.0801566 30.3919217,24.8062935 C31.3509198,23.8357417 31.6634051,21.6317495 31.6634051,21.6317495 C31.6634051,21.6317495 31.9827789,19.0436008 31.9827789,16.4554834 L31.9827789,14.0290881 C31.9827789,11.4409393 31.6634051,8.8527593 31.6634051,8.8527593 Z M12.6895342,19.39582 L12.6880626,10.4095186 L21.3299413,14.9183249 L12.6895342,19.39582 Z" id="youtube-Imported-Layers"/> </symbol></svg>
