<svg width="24" height="25" viewBox="0 0 24 25" fill="none" xmlns="http://www.w3.org/2000/svg">
<path d="M10.5 21.5C11.3284 21.5 12 20.8284 12 20C12 19.1716 11.3284 18.5 10.5 18.5C9.67157 18.5 9 19.1716 9 20C9 20.8284 9.67157 21.5 10.5 21.5Z" fill="white"/>
<path d="M17.5 21.5C18.3284 21.5 19 20.8284 19 20C19 19.1716 18.3284 18.5 17.5 18.5C16.6716 18.5 16 19.1716 16 20C16 20.8284 16.6716 21.5 17.5 21.5Z" fill="white"/>
<path d="M13 13.5H15V10.51H17.99V8.51003H15V5.53003H13V8.51003H10.01V10.51H13V13.5Z" fill="white"/>
<path d="M10 17.5H18C18.2014 17.4994 18.398 17.438 18.564 17.3238C18.7299 17.2096 18.8575 17.0479 18.93 16.86L21.76 9.5H19.62L17.31 15.5H10.67L6.18 4.73C6.02776 4.36507 5.77077 4.05344 5.44149 3.83452C5.11221 3.61559 4.72542 3.49918 4.33 3.5H2V5.5H4.33L9.08 16.88C9.15502 17.0626 9.28242 17.219 9.44614 17.3293C9.60986 17.4396 9.80257 17.499 10 17.5Z" fill="white"/>
</svg>
