<svg width="25" height="24" viewBox="0 0 25 24" fill="none" xmlns="http://www.w3.org/2000/svg">
<path d="M20.465 8.521C20.488 8.347 20.5 8.173 20.5 8C20.5 5.621 18.357 3.712 15.979 4.035C15.286 2.802 13.966 2 12.5 2C11.034 2 9.714 2.802 9.021 4.035C6.638 3.712 4.5 5.621 4.5 8C4.5 8.173 4.512 8.347 4.535 8.521C3.302 9.215 2.5 10.535 2.5 12C2.5 13.465 3.302 14.785 4.535 15.479C4.51193 15.6517 4.50024 15.8258 4.5 16C4.5 18.379 6.638 20.283 9.021 19.965C9.714 21.198 11.034 22 12.5 22C13.966 22 15.286 21.198 15.979 19.965C18.357 20.283 20.5 18.379 20.5 16C20.5 15.827 20.488 15.653 20.465 15.479C21.698 14.785 22.5 13.465 22.5 12C22.5 10.535 21.698 9.215 20.465 8.521ZM11.455 16.416L7.788 12.702L9.212 11.298L11.469 13.584L15.796 9.29L17.204 10.71L11.455 16.416Z" fill="#254AB8"/>
</svg>
