<svg width="25" height="24" viewBox="0 0 25 24" fill="none" xmlns="http://www.w3.org/2000/svg">
<path d="M11.988 21.7541C12.282 21.9111 12.651 21.9101 12.945 21.7531C20.957 17.4491 21.526 9.04011 21.519 6.64911C21.5182 6.45694 21.4615 6.26916 21.3556 6.10877C21.2497 5.94839 21.0994 5.82235 20.923 5.74611L12.873 2.18011C12.7449 2.12364 12.6064 2.09456 12.4664 2.09473C12.3264 2.0949 12.188 2.12432 12.06 2.18111L4.066 5.74711C3.8922 5.82339 3.74399 5.94804 3.63903 6.10618C3.53407 6.26433 3.47678 6.44932 3.474 6.63911C3.44 9.01811 3.919 17.4451 11.988 21.7541ZM9.174 10.2931L11.467 12.5861L15.76 8.29311L17.174 9.70711L11.467 15.4141L7.76 11.7071L9.174 10.2931Z" fill="#254AB8"/>
</svg>
