<svg width="25" height="24" viewBox="0 0 25 24" fill="none" xmlns="http://www.w3.org/2000/svg">
<path d="M17.5 2H13.5V6.059C14.9313 6.21633 16.3035 6.71684 17.5 7.518V2ZM11.5 2H7.5V7.518C8.69648 6.71684 10.0687 6.21633 11.5 6.059V2ZM12.5 22C14.3565 22 16.137 21.2625 17.4497 19.9497C18.7625 18.637 19.5 16.8565 19.5 15C19.5 13.1435 18.7625 11.363 17.4497 10.0503C16.137 8.7375 14.3565 8 12.5 8C10.6435 8 8.86301 8.7375 7.55025 10.0503C6.2375 11.363 5.5 13.1435 5.5 15C5.5 16.8565 6.2375 18.637 7.55025 19.9497C8.86301 21.2625 10.6435 22 12.5 22ZM11.275 13.481L12.5 11L13.725 13.481L16.463 13.878L14.482 15.81L14.95 18.537L12.5 17.25L10.051 18.537L10.519 15.81L8.538 13.878L11.275 13.481Z" fill="#254AB8"/>
</svg>
