<svg width="25" height="24" viewBox="0 0 25 24" fill="none" xmlns="http://www.w3.org/2000/svg">
<path d="M22.447 9.17901C22.3841 8.99388 22.2685 8.83121 22.1142 8.71107C21.9599 8.59094 21.7739 8.51861 21.579 8.50301L15.878 8.05001L13.411 2.58901C13.3324 2.41313 13.2046 2.26374 13.043 2.15887C12.8815 2.05401 12.693 1.99815 12.5003 1.99805C12.3077 1.99794 12.1191 2.05359 11.9574 2.15828C11.7957 2.26296 11.6678 2.41221 11.589 2.58801L9.122 8.05001L3.421 8.50301C3.22946 8.51819 3.04634 8.58822 2.89356 8.70475C2.74077 8.82127 2.62479 8.97934 2.55949 9.16004C2.49419 9.34075 2.48234 9.53645 2.52534 9.72372C2.56835 9.91099 2.6644 10.0819 2.802 10.216L7.015 14.323L5.525 20.775C5.47976 20.9703 5.49426 21.1747 5.56662 21.3617C5.63898 21.5486 5.76586 21.7095 5.9308 21.8235C6.09574 21.9374 6.29112 21.9991 6.49158 22.0007C6.69205 22.0022 6.88835 21.9434 7.055 21.832L12.5 18.202L17.945 21.832C18.1153 21.9451 18.3162 22.0033 18.5206 21.9988C18.725 21.9944 18.9232 21.9274 19.0884 21.8069C19.2536 21.6865 19.378 21.5183 19.4448 21.3251C19.5116 21.1318 19.5176 20.9228 19.462 20.726L17.633 14.326L22.169 10.244C22.466 9.97601 22.575 9.55801 22.447 9.17901Z" fill="#254AB8"/>
</svg>
