<?xml version="1.0" encoding="utf-8"?>
<svg version="1.1" id="Layer_1" xmlns="http://www.w3.org/2000/svg" xmlns:xlink="http://www.w3.org/1999/xlink" x="0px" y="0px"
	 viewBox="0 0 36 36" style="enable-background:new 0 0 36 36;" xml:space="preserve">
<style type="text/css">
	.st0{fill:#2967C5;}
</style>
<path class="st0" d="M0.4,18c0,9.7,7.9,17.6,17.6,17.6S35.6,27.7,35.6,18S27.7,0.4,18,0.4S0.4,8.3,0.4,18z M19.4,6.7l10.9,10.9
	c0.1,0.1,0.1,0.2,0.1,0.4s-0.1,0.3-0.1,0.4L19.4,29.3c-0.4,0.4-0.9,0.6-1.4,0.6s-1-0.2-1.4-0.6c-0.8-0.8-0.8-2.1,0-2.8l6.5-6.5H7.5
	c-1.1,0-2-0.9-2-2c0-1.1,0.9-2,2-2h15.6l-6.5-6.5c-0.8-0.8-0.8-2.1,0-2.8C17.4,5.9,18.6,5.9,19.4,6.7z"/>
</svg>
