<?xml version="1.0" encoding="utf-8"?>
<svg version="1.1" id="Layer_1" xmlns="http://www.w3.org/2000/svg" xmlns:xlink="http://www.w3.org/1999/xlink" x="0px" y="0px"
	 viewBox="0 0 36 36" style="enable-background:new 0 0 36 36;" xml:space="preserve">
<style type="text/css">
	.st0{fill:#2967C5;}
</style>
<path class="st0" d="M18,0.4C8.3,0.4,0.4,8.3,0.4,18S8.3,35.6,18,35.6S35.6,27.7,35.6,18S27.7,0.4,18,0.4z M29.3,19.4L18.4,30.4
	c-0.1,0.1-0.2,0.1-0.4,0.1s-0.3-0.1-0.4-0.1L6.7,19.4C6.3,19,6.1,18.5,6.1,18s0.2-1,0.6-1.4c0.8-0.8,2.1-0.8,2.8,0l6.5,6.5V7.5
	c0-1.1,0.9-2,2-2c1.1,0,2,0.9,2,2v15.6l6.5-6.5c0.8-0.8,2.1-0.8,2.8,0C30.1,17.4,30.1,18.6,29.3,19.4z"/>
</svg>
