<!-- Generated by IcoMoon.io -->
<svg version="1.1" xmlns="http://www.w3.org/2000/svg" width="1056" height="1024" viewBox="0 0 1056 1024">
<title></title>
<g id="icomoon-ignore">
</g>
<path d="M712.488 1024.008c-171.745 0-348.915-98.289-474.75-224.75-175.918-176.545-295.702-453.256-167.571-674.041 7.172-10.663 19.193-17.584 32.831-17.584 21.783 0 39.441 17.658 39.441 39.441 0 6.49-1.568 12.614-4.345 18.014l0.104-0.221c-107.054 184.266 0 423.206 155.259 578.256s396.495 266.278 581.387 159.224c5.61-3.235 12.338-5.144 19.512-5.144 21.858 0 39.577 17.719 39.577 39.577 0 14.684-7.997 27.5-19.873 34.331l-0.192 0.102c-56.958 33.205-125.376 52.808-198.373 52.808-1.056 0-2.112-0.004-3.166-0.012l0.161 0.001z"></path>
<path d="M974.383 914.868c-21.747-0.198-39.299-17.873-39.299-39.648 0-10.81 4.326-20.61 11.342-27.763l-0.006 0.006c9.579-9.59 15.503-22.832 15.503-37.458s-5.924-27.868-15.503-37.459v0l-68.656-68.448c-9.579-9.517-22.78-15.399-37.354-15.399s-27.775 5.882-37.357 15.402l0.003-0.003c-56.135 56.135-134.391 116.027-241.444 80.968s-270.451-198.247-305.718-305.092 24.833-185.1 80.968-241.236c9.529-9.613 15.417-22.848 15.417-37.458s-5.888-27.846-15.421-37.462l0.004 0.004-68.656-69.491c-9.72-9.288-22.922-15.005-37.458-15.005s-27.738 5.717-37.479 15.025l0.021-0.020c-6.983 6.382-16.319 10.291-26.568 10.291-21.783 0-39.441-17.658-39.441-39.441 0-10.249 3.909-19.585 10.319-26.599l-0.027 0.030c23.836-23.868 56.782-38.634 93.176-38.634s69.341 14.765 93.175 38.632l0.001 0.001 68.239 68.656c23.868 23.836 38.634 56.782 38.634 93.176s-14.765 69.341-38.632 93.175l-0.001 0.001c-51.753 51.753-82.012 98.915-62.604 160.893 27.755 83.473 170.91 227.88 255.426 255.635 62.604 20.868 109.349-10.017 161.102-62.604 23.802-23.856 56.713-38.616 93.072-38.616s69.27 14.759 93.069 38.613l0.003 0.003 68.656 68.448c23.818 23.859 38.547 56.797 38.547 93.176s-14.729 69.318-38.549 93.178l0.002-0.002c-6.703 7.169-15.999 11.842-26.385 12.515l-0.117 0.006z"></path>
</svg>
