<!-- Generated by IcoMoon.io -->
<svg version="1.1" xmlns="http://www.w3.org/2000/svg" width="1056" height="1024" viewBox="0 0 1056 1024">
<title></title>
<g id="icomoon-ignore">
</g>
<path d="M904.445 698.812h-576.549c-0.006 0-0.014 0-0.022 0-15.297 0-28.273-9.938-32.823-23.71l-0.070-0.244-158.354-484.937-97.28-36.571c-13.178-5.090-22.355-17.656-22.355-32.366 0-19.113 15.494-34.607 34.607-34.607 4.403 0 8.614 0.822 12.488 2.322l-0.236-0.080 112.64 42.606c9.801 3.762 17.315 11.575 20.592 21.333l0.071 0.244 155.246 476.891h524.069l83.566-347.429h-655.543c-19.087 0-34.56-15.473-34.56-34.56s15.473-34.56 34.56-34.56h699.977c0.003 0 0.006 0 0.010 0 10.949 0 20.702 5.118 26.998 13.093l0.055 0.073c4.66 5.881 7.476 13.409 7.476 21.594 0 2.782-0.325 5.489-0.94 8.083l0.047-0.237-100.023 415.817c-3.537 15.609-17.229 27.11-33.631 27.246h-0.015z"></path>
<path d="M859.645 491.087h-496.274c-19.087 0-34.56-15.473-34.56-34.56s15.473-34.56 34.56-34.56h496.274c19.087 0 34.56 15.473 34.56 34.56s-15.473 34.56-34.56 34.56v0z"></path>
<path d="M373.428 937.624c-54.534 0-98.743-44.209-98.743-98.743s44.209-98.743 98.743-98.743c54.534 0 98.743 44.209 98.743 98.743v0c0 54.534-44.209 98.743-98.743 98.743v0zM373.428 809.624c-16.461 0-29.806 13.344-29.806 29.806s13.344 29.806 29.806 29.806c16.461 0 29.806-13.344 29.806-29.806v0c0.003-0.163 0.005-0.356 0.005-0.549 0-16.461-13.344-29.806-29.806-29.806-0.002 0-0.004 0-0.005 0v0z"></path>
<path d="M828.376 937.624c-54.455-0.104-98.56-44.273-98.56-98.743 0-54.534 44.209-98.743 98.743-98.743s98.743 44.209 98.743 98.743v0c0 0 0 0 0 0 0 54.534-44.209 98.743-98.743 98.743-0.064 0-0.129 0-0.193 0h0.010zM828.376 809.624c-16.459 0.003-29.801 13.346-29.801 29.806s13.344 29.806 29.806 29.806 29.806-13.344 29.806-29.806c0-0.193-0.002-0.385-0.005-0.577v0.029c0-0.054 0.001-0.119 0.001-0.183 0-16.36-13.263-29.623-29.623-29.623-0.064 0-0.129 0-0.193 0.001h0.010z"></path>
</svg>
