<!-- Generated by IcoMoon.io -->
<svg version="1.1" xmlns="http://www.w3.org/2000/svg" width="1056" height="1024" viewBox="0 0 1056 1024">
<title></title>
<g id="icomoon-ignore">
</g>
<path d="M1001.547 267.911c-21.814 0-39.497 17.683-39.497 39.497v0 48.483c-70.557 18.433-121.783 81.602-121.783 156.735s51.226 138.301 120.657 156.484l1.126 0.251v129.358h-566.335c2.22-5.249 3.523-11.35 3.553-17.752v-0.011c-0.075-13.138-5.41-25.017-14.003-33.647l0.002 0.002c-8.734-8.247-20.546-13.316-33.541-13.316s-24.807 5.069-33.565 13.338l0.024-0.022c-8.402 8.614-13.584 20.403-13.584 33.401 0 0.086 0 0.172 0.001 0.257v-0.013c0.029 6.413 1.332 12.514 3.669 18.074l-0.116-0.311h-214.204v-129.358c70.83-18.327 122.324-81.603 122.462-156.928v-0.016c-0.183-75.223-51.686-138.367-121.34-156.281l-1.122-0.245v-129.985h213.577c-2.246 5.221-3.553 11.298-3.553 17.68 0 0.029 0 0.059 0 0.088v-0.005c-0.005 0.251-0.008 0.547-0.008 0.844 0 25.622 20.771 46.393 46.393 46.393 0.297 0 0.593-0.003 0.888-0.008l-0.044 0.001c0.124 0.001 0.271 0.002 0.418 0.002 25.969 0 47.020-21.052 47.020-47.020 0-0.074 0-0.148-0.001-0.222v0.011c-0.006-6.411-1.311-12.516-3.667-18.067l0.115 0.304h606.041c21.814 0 39.497-17.683 39.497-39.497s-17.683-39.497-39.497-39.497v0h-946.678c-0.062 0-0.136-0.001-0.21-0.001-21.698 0-39.288 17.59-39.288 39.288 0 0.074 0 0.147 0.001 0.221v-0.011 203.128c0 0.062-0.001 0.136-0.001 0.21 0 21.698 17.59 39.288 39.288 39.288 0.074 0 0.147 0 0.221-0.001h-0.011c46.166 0 83.592 37.425 83.592 83.592s-37.425 83.592-83.592 83.592v0c-0.066 0-0.145-0.001-0.223-0.001-21.331 0-38.692 17-39.273 38.19l-0.001 0.054v203.337c0 0 0 0 0 0.001 0 21.698 17.59 39.288 39.288 39.288 0.073 0 0.147 0 0.22-0.001h947.085c0 0 0 0 0.001 0 21.74 0 39.378-17.565 39.497-39.277v-203.348c-0.119-21.724-17.756-39.288-39.497-39.288 0 0 0 0-0.001 0v0c-41.976-4.852-74.261-40.191-74.261-83.069s32.285-78.217 73.872-83.033l0.388-0.037c21.814 0 39.497-17.683 39.497-39.497v0-82.129c0-21.814-17.683-39.497-39.497-39.497v0z"></path>
<path d="M351.829 375.326c-26.199 0-47.438 21.239-47.438 47.438s21.239 47.438 47.438 47.438c26.199 0 47.438-21.239 47.438-47.438 0-0.073 0-0.147-0.001-0.22v0.011c0 0 0 0 0 0 0-26.084-21.145-47.229-47.229-47.229-0.073 0-0.147 0-0.22 0.001h0.011z"></path>
<path d="M351.829 554.213c-26.199 0-47.438 21.239-47.438 47.438s21.239 47.438 47.438 47.438c26.199 0 47.438-21.239 47.438-47.438v0c0-26.199-21.239-47.438-47.438-47.438v0z"></path>
</svg>
