<!-- Generated by IcoMoon.io -->
<svg version="1.1" xmlns="http://www.w3.org/2000/svg" width="1024" height="1024" viewBox="0 0 1024 1024">
<title></title>
<g id="icomoon-ignore">
</g>
<path d="M1014.896 217.188c-5.688-4-12.98-4.98-19.52-2.562l-173.916 63.25c-21.562 7.834-38.73 23.626-48.334 44.458-1.8 3.906-2.982 7.964-4.166 12.016-29.864-8.49-85.364-26.222-140.52-54.64-83.346-42.946-147.020-21.734-201.632 19.922-27.672 0.544-65.812 3.816-103.304 7.12-23.916 2.11-46.518 4.052-64.846 5.17-0.45-11.008-3.026-21.932-7.778-32.252-9.604-20.834-26.77-36.626-48.334-44.458l-173.92-63.254c-6.52-2.396-13.854-1.416-19.52 2.562-5.71 4.002-9.106 10.522-9.106 17.48v426.666c0 11.792 9.542 21.334 21.334 21.334h62.312c26.502 0 51.158-12.5 67.096-32.684 8.49 6.456 18.546 14.016 29.092 21.934 24.896 18.73 52.146 39.166 64.104 49.188 79.438 66.5 174.938 138.312 193.958 150.812 17.77 11.666 49.77 24.084 74.104 24.084 9.52 0 33.5 0 50.334-14.23 17.354 6.812 36.062 6.48 53.458-1.188 17.354-7.646 31.396-22.062 39.562-39.584 16.666 3.416 35.812 0.916 53.166-7.792 16.27-8.146 28.25-20.48 34.666-34.896 15.416 1.416 31.876-3.604 46.604-14.876 21.044-16.086 30.68-39.842 27.954-63.278l54.114-29.938c15.848 21.482 41.036 35.112 68.494 35.112h62.312c11.792 0 21.334-9.542 21.334-21.334v-426.662c0.002-6.96-3.394-13.48-9.102-17.48zM123.604 569.646c-6.208 16.562-22.27 27.688-39.958 27.688h-40.98v-374.876l145.292 52.834c10.792 3.938 19.376 11.834 24.166 22.25 4.812 10.416 5.23 22.084 1.208 32.812l-89.728 239.292zM763.896 706.876c-7.23 5.542-17.354 8.626-21.854 4.126-0.23-0.23-0.586-0.208-0.822-0.428-0.408-0.378-0.61-0.888-1.052-1.24-15.25-12.042-83.584-81.958-125.812-126-8.146-8.52-21.666-8.834-30.146-0.646-8.52 8.146-8.812 21.646-0.646 30.146 9.912 10.346 89.48 93.216 121.326 122.198-2.378 9.368-11.062 15.152-15.472 17.364-13.666 6.854-27.916 5.708-33.25 0.75-0.158-0.148-0.394-0.14-0.558-0.284-0.26-0.232-0.376-0.558-0.652-0.778-25.584-20.438-89.77-88.646-104.292-104.438-7.98-8.688-21.458-9.23-30.146-1.27-8.666 7.98-9.25 21.48-1.27 30.146 0.7 0.758 63.604 68.612 98.934 100.13-3.472 9.976-10.546 18.238-19.622 22.244-6.698 2.976-17.174 4.502-29.144-4.344-30.636-25.976-92.118-91.422-104.21-104.364-8.020-8.626-21.562-9.062-30.146-1.020-8.604 8.042-9.062 21.542-1.020 30.146 14.336 15.344 56.71 60.256 88.922 90.666-3.598 0.438-7.376 0.688-10.964 0.688-14.126 0-38.396-9.020-50.666-17.084-14.958-9.834-108.876-79.916-189.98-147.834-12.27-10.292-40.27-31.354-65.896-50.604-13.734-10.31-26.388-19.816-35.714-26.99l79.876-213.032c20.734-0.906 48.376-3.296 77.63-5.876 16.546-1.458 33.11-2.88 48.938-4.112-24.328 24.974-60.498 69.704-55.73 111.632 2.188 19.084 12.626 34.98 30.23 45.98 34.854 21.812 99.376 3.52 130.458-34.708 20.062-2.896 33.626-8.020 48.416-15.354 25 23.5 58.52 51.126 93.73 80.146 61.292 50.5 130.77 107.75 149.146 139.854 10.228 17.856-3.958 30.69-8.542 34.19zM800.494 638.268c-28.424-38.024-90.040-88.898-150.078-138.372-40.020-32.98-77.812-64.126-102-88.312-6.666-6.626-16.896-8.126-25.146-3.73-21.73 11.646-31.52 16.458-56.062 18.916-6.542 0.666-12.416 4.292-15.916 9.854-16.73 26.542-63.23 39.166-77.98 29.958-8.376-5.25-10-10.584-10.458-14.646-2.062-18.146 16.312-49.562 46.792-80.062 75.48-75.48 129.438-90.25 199.25-54.25 66.328 34.198 131.79 53.534 159.27 60.838 0.794 3.196 1.37 6.424 2.542 9.558l82.834 220.902-53.048 29.346zM981.334 640h-40.98c-17.688 0-33.75-11.126-39.958-27.688l-89.73-239.27c-4.020-10.75-3.604-22.416 1.208-32.834 4.792-10.416 13.376-18.312 24.166-22.25l145.292-52.834v374.876z"></path>
</svg>
