<!-- Generated by IcoMoon.io -->
<svg version="1.1" xmlns="http://www.w3.org/2000/svg" width="1056" height="1024" viewBox="0 0 1056 1024">
<title></title>
<g id="icomoon-ignore">
</g>
<path d="M605.631 734.508c-0.002 0-0.004 0-0.006 0-22.268 0-40.32-18.052-40.32-40.32 0-10.446 3.972-19.964 10.489-27.126l-0.029 0.033 397.653-445.867c7.451-9.203 18.748-15.037 31.408-15.037 22.268 0 40.32 18.052 40.32 40.32 0 11.331-4.674 21.571-12.199 28.895l-0.009 0.009-397.44 445.867c-7.435 8.098-18.053 13.172-29.857 13.227h-0.010z"></path>
<path d="M534.165 817.922c0.083 0.001 0.181 0.001 0.279 0.001 22.15 0 40.107-17.956 40.107-40.107 0-10.561-4.082-20.169-10.755-27.332l0.022 0.024-482.773-531.2c-7.405-8.141-18.042-13.231-29.867-13.231-22.271 0-40.325 18.054-40.325 40.325 0 10.446 3.972 19.963 10.487 27.126l-0.029-0.033 482.987 531.2c7.369 8.137 17.973 13.227 29.766 13.227 0.035 0 0.071 0 0.106 0h-0.005z"></path>
</svg>
