<!-- Generated by IcoMoon.io -->
<svg version="1.1" xmlns="http://www.w3.org/2000/svg" width="1056" height="1024" viewBox="0 0 1056 1024">
<title></title>
<g id="icomoon-ignore">
</g>
<path d="M527.92 0.103c0.024 0 0.052 0 0.080 0 282.713 0 511.897 229.184 511.897 511.897s-229.184 511.897-511.897 511.897c-282.713 0-511.897-229.184-511.897-511.897 0-141.362 57.301-269.341 149.943-361.977v0c92.367-92.617 220.104-149.92 361.225-149.92 0.228 0 0.456 0 0.684 0h-0.035zM861.878 178.455c-85.564-85.761-203.875-138.818-334.578-138.818-261.014 0-472.607 211.594-472.607 472.607s211.594 472.607 472.607 472.607c261.014 0 472.607-211.594 472.607-472.607 0-0.050 0-0.099 0-0.149v0.008c0-0.111 0-0.241 0-0.372 0-130.149-52.747-247.978-138.030-333.276l0.001 0.001z"></path>
<path d="M567.002 407.47v-41.977c-0.124-0.878-0.195-1.893-0.195-2.924 0-12.163 9.86-22.023 22.023-22.023 0.396 0 0.789 0.010 1.18 0.031l-0.055-0.002h58.727v-89.538h-80.853c-89.848 0-109.906 66.275-109.906 109.389v47.044h-51.696v104.633h52.73v261.376h104.116v-261.376h77.338l3.412-41.357 6.307-63.483z"></path>
</svg>
