<!-- Generated by IcoMoon.io -->
<svg version="1.1" xmlns="http://www.w3.org/2000/svg" width="1084" height="1024" viewBox="0 0 1084 1024">
<title></title>
<g id="icomoon-ignore">
</g>
<path stroke-linejoin="miter" stroke-linecap="butt" stroke-miterlimit="10" stroke-width="60.2553"  d="M1009.644 86.869h-935.289c-15.588 0-28.342-12.754-28.342-28.342s12.754-28.342 28.342-28.342h935.289c15.588 0 28.342 12.754 28.342 28.342s-12.471 28.342-28.342 28.342z"></path>
<path stroke-linejoin="miter" stroke-linecap="butt" stroke-miterlimit="10" stroke-width="60.2553"  d="M1009.644 540.342h-935.289c-15.588 0-28.342-12.754-28.342-28.342s12.754-28.342 28.342-28.342h935.289c15.588 0 28.342 12.754 28.342 28.342s-12.471 28.342-28.342 28.342z"></path>
<path stroke-linejoin="miter" stroke-linecap="butt" stroke-miterlimit="10" stroke-width="60.2553"  d="M1009.644 993.816h-935.289c-15.588 0-28.342-12.754-28.342-28.342s12.754-28.342 28.342-28.342h935.289c15.588 0 28.342 12.754 28.342 28.342s-12.471 28.342-28.342 28.342z"></path>
</svg>
