<!-- Generated by IcoMoon.io -->
<svg version="1.1" xmlns="http://www.w3.org/2000/svg" width="1024" height="1024" viewBox="0 0 1024 1024">
<title></title>
<g id="icomoon-ignore">
</g>
<path d="M36.416 1017.75l311.574-311.572c71.854 64.716 166.592 104.49 270.678 104.49 223.498-0.002 405.332-181.834 405.332-405.334s-181.834-405.334-405.334-405.334-405.334 181.834-405.334 405.334c0 104.086 39.774 198.822 104.49 270.678l-311.572 311.572c-4.166 4.166-6.25 9.626-6.25 15.084s2.084 10.916 6.25 15.084c8.334 8.332 21.834 8.332 30.166-0.002zM256 405.334c0-199.958 162.688-362.666 362.666-362.666s362.668 162.708 362.668 362.666-162.688 362.666-362.668 362.666-362.666-162.708-362.666-362.666z"></path>
</svg>
