<!-- Generated by IcoMoon.io -->
<svg version="1.1" xmlns="http://www.w3.org/2000/svg" width="1056" height="1024" viewBox="0 0 1056 1024">
<title></title>
<g id="icomoon-ignore">
</g>
<path d="M527.92 0.103c0.024 0 0.052 0 0.080 0 282.713 0 511.897 229.184 511.897 511.897s-229.184 511.897-511.897 511.897c-282.713 0-511.897-229.184-511.897-511.897 0-141.362 57.301-269.341 149.943-361.977v0c92.32-92.616 220.016-149.92 361.097-149.92 0.273 0 0.546 0 0.819 0.001h-0.042zM861.878 178.455c-85.564-85.761-203.875-138.818-334.578-138.818-261.014 0-472.607 211.594-472.607 472.607s211.594 472.607 472.607 472.607c261.014 0 472.607-211.594 472.607-472.607 0-0.050 0-0.099 0-0.149v0.008c0-0.111 0-0.241 0-0.372 0-130.149-52.747-247.978-138.030-333.276l0.001 0.001z"></path>
<path d="M396.922 512.103c0.059-72.361 58.733-130.998 131.102-130.998 72.406 0 131.102 58.696 131.102 131.102s-58.696 131.102-131.102 131.102c-0.036 0-0.073 0-0.109 0h0.006c-72.326-0.235-130.881-58.862-130.998-131.194v-0.011zM663.364 255.483h-270.682c-66.943 0.234-121.149 54.439-121.383 121.36v270.704c0.292 66.92 54.463 121.091 121.355 121.383h270.71c66.991-0.118 121.265-54.392 121.383-121.372v-270.693c-0.059-67.014-54.369-121.324-121.377-121.383h-0.006zM392.683 285.88h270.682c50.247 0.059 90.971 40.747 91.089 90.974v270.693c-0.059 50.262-40.818 90.985-91.089 90.985h-270.682c-50.226-0.059-90.927-40.759-90.985-90.98v-270.688c0.059-50.226 40.759-90.927 90.98-90.985h0.006zM690.35 324.135c-14.732 0-26.675 11.943-26.675 26.675s11.943 26.675 26.675 26.675c14.732 0 26.675-11.943 26.675-26.675v0c0-0.031 0-0.067 0-0.104 0-14.675-11.897-26.572-26.572-26.572-0.036 0-0.073 0-0.109 0h0.006zM693.452 512.103c0-91.363-74.065-165.428-165.428-165.428s-165.428 74.065-165.428 165.428c0 91.363 74.065 165.428 165.428 165.428v0c91.363 0 165.428-74.065 165.428-165.428v0z"></path>
</svg>
