<!-- Generated by IcoMoon.io -->
<svg version="1.1" xmlns="http://www.w3.org/2000/svg" width="1056" height="1024" viewBox="0 0 1056 1024">
<title></title>
<g id="icomoon-ignore">
</g>
<path d="M51.422 112.431h953.156c21.814 0 39.497 17.683 39.497 39.497v0 720.144c0 21.814-17.683 39.497-39.497 39.497v0h-953.156c-21.814 0-39.497-17.683-39.497-39.497s17.683-39.497 39.497-39.497h913.868v-641.149h-874.371v558.811c0 21.814-17.683 39.497-39.497 39.497s-39.497-17.683-39.497-39.497v0-598.309c0-21.814 17.683-39.497 39.497-39.497v0z"></path>
<path d="M494.041 464.352c3.735-8.091 9.717-14.61 17.144-18.91l0.201-0.107 454.949-306.364c5.976-3.827 13.265-6.099 21.086-6.099 21.814 0 39.497 17.683 39.497 39.497 0 15.736-9.202 29.323-22.519 35.672l-0.239 0.102-454.74 306.573c-5.533 3.134-12.151 4.982-19.202 4.982-21.814 0-39.497-17.683-39.497-39.497 0-5.734 1.222-11.182 3.419-16.099l-0.1 0.251z"></path>
<path d="M561.123 461.009c-3.769-8.007-9.744-14.453-17.142-18.7l-0.203-0.108-454.949-306.573c-5.462-3.034-11.979-4.82-18.913-4.82-21.821 0-39.511 17.69-39.511 39.511 0 14.887 8.234 27.852 20.396 34.588l0.203 0.103 454.74 306.364c5.533 3.134 12.151 4.982 19.202 4.982 21.814 0 39.497-17.683 39.497-39.497 0-5.734-1.222-11.182-3.419-16.099l0.1 0.251z"></path>
</svg>
