<!-- Generated by IcoMoon.io -->
<svg version="1.1" xmlns="http://www.w3.org/2000/svg" width="1024" height="1024" viewBox="0 0 1024 1024">
<title></title>
<g id="icomoon-ignore">
</g>
<path d="M72.835 1011.488l291.197-291.197c69.673 56.405 158.206 90.367 254.632 90.367 223.486 0 405.33-181.844 405.33-405.33s-181.842-405.328-405.328-405.328-405.33 181.844-405.33 405.33c0 96.425 33.962 184.958 90.367 254.632l-291.197 291.197c-8.32 8.32-12.502 19.242-12.502 30.166s4.182 21.846 12.502 30.166c16.682 16.682 43.648 16.682 60.329-0.002zM298.669 405.33c0-176.468 143.529-319.997 319.997-319.997s319.997 143.529 319.997 319.997-143.529 319.997-319.997 319.997-319.997-143.531-319.997-319.997z"></path>
</svg>
