<!-- Generated by IcoMoon.io -->
<svg version="1.1" xmlns="http://www.w3.org/2000/svg" width="1056" height="1024" viewBox="0 0 1056 1024">
<title></title>
<g id="icomoon-ignore">
</g>
<path d="M528 0c-283.167 0-512 228.833-512 512s228.833 512 512 512 512-228.833 512-512-228.833-512-512-512zM528 938.945c-235.311 0-426.945-191.634-426.945-426.945s191.634-426.945 426.945-426.945 426.945 191.634 426.945 426.945-191.634 426.945-426.945 426.945z"></path>
<path d="M710.857 671.033c-11.076-16.927-34.064-22.361-50.573-10.867-47.229 33.228-110.55 1.254-116.402-0.418-21.734-5.642-49.737-4.598-76.904-0.836 3.971-8.986 7.314-18.181 10.449-28.003 8.359-26.331 12.748-53.081 13.166-78.367h77.74c20.271 0 36.571-16.3 36.571-36.571s-16.3-36.571-36.571-36.571h-89.025c0-0.209-0.209-0.627-0.209-0.836-17.345-46.811-7.105-127.896 43.886-135.001 68.127-9.195 80.666 61.44 80.875 63.739 1.672 18.599 17.345 33.019 36.362 33.019 35.318 0 36.78-33.646 36.153-41.169v0c-0.418-3.344-17.972-136.255-153.6-128.731-125.179 7.105-131.239 169.273-120.372 208.98h-26.122c-20.271 0-36.571 16.3-36.571 36.571s16.3 36.571 36.571 36.571h41.169c-1.463 54.335-28.839 114.312-60.813 134.792-15.464 10.031-22.779 30.72-13.375 46.602 14.211 23.615 40.751 20.271 44.513 18.808 40.542-13.584 109.923-29.466 137.509-22.152 5.433 1.463 94.668 46.811 174.707-9.195 16.718-11.494 21.943-33.437 10.867-50.364z"></path>
</svg>
