<!-- Generated by IcoMoon.io -->
<svg version="1.1" xmlns="http://www.w3.org/2000/svg" width="1056" height="1024" viewBox="0 0 1056 1024">
<title></title>
<g id="icomoon-ignore">
</g>
<path d="M528 0c-282.77 0-512 229.23-512 512s229.23 512 512 512c282.77 0 512-229.23 512-512v0c-0.33-282.637-229.363-511.67-511.968-512h-0.032zM528 950.802c-242.344 0-438.802-196.458-438.802-438.802s196.458-438.802 438.802-438.802c242.344 0 438.802 196.458 438.802 438.802v0c-0.22 242.255-196.547 438.581-438.781 438.802h-0.021z"></path>
<path d="M545.428 474.045v0c-87.915-15.492-132.454-38.729-132.454-66.808s51.51-54.221 120.061-54.221c73.392 0 111.153 37.374 118.511 62.548 3.78 16.498 18.334 28.62 35.719 28.62 20.213 0 36.599-16.386 36.599-36.599 0-4.503-0.813-8.816-2.301-12.8l0.083 0.253c-13.943-47.637-64.678-97.985-146.009-111.54v-47.637c0-20.213-16.386-36.599-36.599-36.599s-36.599 16.386-36.599 36.599v0 45.507c-98.372 8.133-162.663 56.738-162.663 125.87 0 104.956 140.2 129.549 193.646 138.844v0c132.26 23.238 132.26 58.094 132.26 70.1 0 26.142-45.894 54.608-120.061 54.608-88.109 0-148.72-35.244-154.917-67.776-2.215-18.288-17.643-32.32-36.348-32.32-20.213 0-36.599 16.386-36.599 36.599 0 2.877 0.332 5.676 0.96 8.362l-0.049-0.248c11.231 65.259 85.785 114.832 183.77 126.064v46.669c0 20.213 16.386 36.599 36.599 36.599s36.599-16.386 36.599-36.599v0-45.7c96.823-8.52 162.663-58.094 162.663-126.257-0.194-95.855-102.632-126.257-192.871-142.136z"></path>
</svg>
