<!-- Generated by IcoMoon.io -->
<svg version="1.1" xmlns="http://www.w3.org/2000/svg" width="1056" height="1024" viewBox="0 0 1056 1024">
<title></title>
<g id="icomoon-ignore">
</g>
<path d="M328 904h400c16.569 0 30-13.431 30-30s-13.431-30-30-30v0h-400c-16.569 0-30 13.431-30 30s13.431 30 30 30v0z"></path>
<path d="M328 784h400c16.569 0 30-13.431 30-30s-13.431-30-30-30v0h-400c-16.569 0-30 13.431-30 30s13.431 30 30 30v0z"></path>
<path d="M970 286h-96v-216c0-38.66-31.34-70-70-70v0h-552c-38.66 0-70 31.34-70 70v0 216h-96c-38.66 0-70 31.34-70 70v0 432c0 38.66 31.34 70 70 70v0h96v96c0 38.66 31.34 70 70 70v0h552c38.66 0 70-31.34 70-70v0-96h96c38.66 0 70-31.34 70-70v0-432c0-38.66-31.34-70-70-70v0zM242 70c0-5.523 4.477-10 10-10v0h552c5.523 0 10 4.477 10 10v0 216h-572zM814 828v126c0 5.523-4.477 10-10 10v0h-552c-5.523 0-10-4.477-10-10v0-290h572zM980 788c0 5.523-4.477 10-10 10v0h-96v-164c0-16.569-13.431-30-30-30v0h-632c-16.569 0-30 13.431-30 30v0 164h-96c-5.523 0-10-4.477-10-10v0-432c0-5.523 4.477-10 10-10v0h884c5.523 0 10 4.477 10 10v0z"></path>
<path d="M910 446c0 16.569-13.431 30-30 30s-30-13.431-30-30c0-16.569 13.431-30 30-30v0c16.569 0 30 13.431 30 30v0z"></path>
</svg>
