<!-- Generated by IcoMoon.io -->
<svg version="1.1" xmlns="http://www.w3.org/2000/svg" width="1024" height="1024" viewBox="0 0 1024 1024">
<title></title>
<g id="icomoon-ignore">
</g>
<path d="M896 618.666c-41.644 0-128.008 23.206-171.77 35.778-5.804-61.224-84.248-82.896-165.312-99.362-37-7.5-64.52-20.77-91.146-33.604-32.834-15.854-63.854-30.812-105.104-30.812-47.25 0-90.278 9.656-114.57 16.342-6.424-22.338-24.656-40.348-48.826-45.174l-173.752-34.75c-6.27-1.23-12.77 0.376-17.708 4.416-4.936 4.062-7.812 10.104-7.812 16.5v341.334c0 11.792 9.542 21.334 21.334 21.334h133.666c26.33 0 48.768-16.764 58.424-40.294 47.75 22.764 268.686 125.626 362.576 125.626 82.75 0 253.062-83.73 365.75-139.126 29.416-14.458 53.73-26.416 69.5-33.334 7.75-3.414 12.75-11.082 12.75-19.54 0-50.25-52.624-85.334-128-85.334zM207.834 527.604l-31.73 222.084c-1.478 10.438-10.562 18.312-21.104 18.312h-112.334v-293.98l148.23 29.646c11.104 2.23 18.542 12.73 16.938 23.938zM922.916 718.584c-102.5 50.396-274.082 134.75-346.916 134.75-77.604 0-281.376-90.854-353.334-125.854-0.086-0.042-0.18-0.026-0.266-0.068l25.114-175.796c15.518-4.86 63.026-18.282 115.152-18.282 31.5 0 55.812 11.73 86.584 26.562 27.626 13.334 58.958 28.438 101.166 37.020 92.708 18.792 132.25 38.062 132.25 64.416 0 5.208-1.584 8.416-5.646 11.438-13.5 10.104-66.458 27.166-265.626-31.896-11.25-3.354-23.166 3.126-26.52 14.396-3.354 11.292 3.104 23.166 14.396 26.52 98.25 29.126 173.396 43.646 226.646 43.646 34.73 0 60.146-6.166 76.626-18.48 1.424-1.062 2.468-2.364 3.766-3.51 1.328-0.144 2.636 0.016 3.964-0.386 37.728-11.602 144.604-41.726 185.728-41.726 34.792 0 71.396 10.584 82.188 30.416-14.896 7-33.75 16.27-55.272 26.834z"></path>
<path d="M789.334 512c105.876 0 192-86.126 192-192s-86.126-192-192-192-192 86.126-192 192 86.124 192 192 192zM789.334 170.666c82.334 0 149.334 67 149.334 149.334s-67 149.334-149.334 149.334-149.334-67-149.334-149.334 67-149.334 149.334-149.334z"></path>
<path d="M756.208 275.084l11.792-5.896v136.146c0 11.792 9.542 21.334 21.334 21.334s21.334-9.542 21.334-21.334v-170.666c0-7.396-3.834-14.25-10.126-18.146-6.27-3.938-14.146-4.23-20.75-0.938l-42.666 21.334c-10.542 5.27-14.812 18.084-9.542 28.626 5.27 10.54 18.104 14.748 28.624 9.54z"></path>
</svg>
