<!-- Generated by IcoMoon.io -->
<svg version="1.1" xmlns="http://www.w3.org/2000/svg" width="1056" height="1024" viewBox="0 0 1056 1024">
<title></title>
<g id="icomoon-ignore">
</g>
<path d="M116.291 282.691c-20.958 0-37.948 16.99-37.948 37.948v0 667.608c0 20.958 16.99 37.948 37.948 37.948s37.948-16.99 37.948-37.948v0-667.608c0-20.958-16.99-37.948-37.948-37.948v0z"></path>
<path d="M974.643 564.793c0.002-0.238 0.003-0.52 0.003-0.801 0-29.42-11.805-56.083-30.937-75.511l0.013 0.014c20.977-21.238 33.933-50.439 33.933-82.666 0-0.161 0-0.322-0.001-0.483v0.025c0-60.235-45.779-120.471-133.12-120.471h-217.65c25.7-60.235 57.224-158.017 32.527-220.863-9.988-27.541-31.402-48.823-58.358-58.42l-0.672-0.209c-92.16-32.728-155.407 46.18-216.445 122.478-47.987 60.235-102.199 127.297-176.088 159.423-12.576 6.356-21.048 19.177-21.048 33.977 0 20.311 15.956 36.894 36.017 37.9l0.090 0.004c0.804 0.062 1.74 0.098 2.685 0.098 4.813 0 9.411-0.92 13.627-2.595l-0.25 0.087c91.156-40.157 154.202-118.262 204.8-180.706 63.046-78.707 94.77-111.636 131.915-98.384 6.761 1.849 12.015 6.97 14.017 13.511l0.037 0.142c15.26 38.952-14.657 129.907-44.775 193.556h-40.157c-20.958 0-37.948 16.99-37.948 37.948s16.99 37.948 37.948 37.948h341.333c40.759-1.606 55.416 23.693 55.416 44.574 0.001 0.095 0.001 0.208 0.001 0.32 0 11.719-4.759 22.327-12.449 29.997l-0.001 0.001c-10.982 9.434-25.372 15.177-41.104 15.177-1.362 0-2.714-0.043-4.055-0.128l0.183 0.009c-20.958 0-37.948 16.99-37.948 37.948s16.99 37.948 37.948 37.948v0c1.493-0.127 3.231-0.199 4.986-0.199 14.705 0 28.227 5.067 38.914 13.55l-0.129-0.099c6.557 6.104 10.645 14.784 10.645 24.419 0 0.168-0.001 0.336-0.004 0.504v-0.025c0 21.082-18.472 52.405-69.672 52.405-20.958 0-37.948 16.99-37.948 37.948s16.99 37.948 37.948 37.948v0c1.489-0.118 3.225-0.186 4.976-0.186 15.261 0 29.324 5.128 40.56 13.755l-0.158-0.117c6.668 5.914 10.848 14.504 10.848 24.069 0 0.22-0.002 0.44-0.007 0.66l0.001-0.033c0 20.078-20.078 52.605-71.278 52.605-0.826-0.064-1.788-0.1-2.759-0.1-20.958 0-37.948 16.99-37.948 37.948s16.99 37.948 37.948 37.948c0.971 0 1.933-0.036 2.885-0.108l-0.127 0.008c1.303-0.107 2.82-0.168 4.351-0.168 13.638 0 26.147 4.839 35.901 12.894l-0.096-0.077c6.329 6.232 10.25 14.893 10.25 24.47 0 0.291-0.004 0.582-0.011 0.872l0.001-0.043c0 21.283-17.468 52.806-65.456 52.806h-575.849c-20.958 0-37.948 16.99-37.948 37.948s16.99 37.948 37.948 37.948h576.050c91.758 0 140.549-66.259 140.549-128.703 0-0.086 0-0.188 0-0.29 0-27.119-9.793-51.95-26.035-71.151l0.134 0.162c28.649-22.248 47.182-56.347 48.185-94.81l0.003-0.161c0-0.036 0-0.078 0-0.12 0-28.784-11.322-54.925-29.755-74.21l0.039 0.041c25.826-22.554 42.167-55.41 42.566-92.090l0.001-0.070z"></path>
</svg>
