<!-- Generated by IcoMoon.io -->
<svg version="1.1" xmlns="http://www.w3.org/2000/svg" width="32" height="32" viewBox="0 0 32 32">
<title>rss</title>
<path d="M23.917 18.462v-2.962c0-0.82-0.672-1.492-1.492-1.492h-0.735c-0.42 0-0.756-0.336-0.756-0.735 0-2.857-2.332-5.189-5.189-5.189h-2.227c-2.437 0-4.433 1.996-4.433 4.433v5.946c0 2.437 1.996 4.454 4.433 4.454h5.946c2.435 0 4.453-2.018 4.453-4.455v0zM13.516 17.706h5.189c0.421 0 0.756 0.337 0.756 0.756 0 0.4-0.336 0.735-0.756 0.735h-5.189c-0.399 0-0.735-0.336-0.735-0.735 0-0.42 0.336-0.756 0.735-0.756v0zM17.067 12.516c0 0.42-0.315 0.756-0.735 0.756h-2.816c-0.399 0-0.735-0.336-0.735-0.756 0-0.399 0.336-0.735 0.735-0.735h2.816c0.42 0 0.735 0.336 0.735 0.735v0z"></path>
<path d="M16 1c8.271 0 15 6.729 15 15s-6.729 15-15 15-15-6.729-15-15 6.729-15 15-15zM16 0c-8.836 0-16 7.163-16 16s7.163 16 16 16c8.836 0 16-7.163 16-16s-7.164-16-16-16v0z"></path>
</svg>
