<!-- Generated by IcoMoon.io -->
<svg version="1.1" xmlns="http://www.w3.org/2000/svg" width="1056" height="1024" viewBox="0 0 1056 1024">
<title></title>
<g id="icomoon-ignore">
</g>
<path d="M636.588 806.93c-222.782-0.202-403.305-180.849-403.305-403.66 0-111.28 45.029-212.043 117.861-285.062l-0.008 0.008c73.020-73.045 173.91-118.226 285.353-118.226 222.835 0 403.479 180.644 403.479 403.479 0 111.393-45.141 212.243-118.128 285.254l0.001-0.001c-72.652 73.020-173.216 118.209-284.335 118.209-0.323 0-0.646 0-0.968-0.001h0.050zM636.588 75.359c-181.193 0.023-328.070 146.914-328.070 328.111 0 181.21 146.9 328.111 328.111 328.111s328.111-146.9 328.111-328.111c0-90.615-36.733-172.651-96.121-232.029l-0.001-0.001c-59.102-59.354-140.884-96.082-231.246-96.082-0.276 0-0.551 0-0.827 0.001h0.043z"></path>
<path d="M859.448 441.144c-20.807 0-37.675-16.868-37.675-37.675v0c-3.374-99.736-85.037-179.306-185.285-179.306s-181.911 79.57-185.277 178.998l-0.008 0.308c0.063 0.82 0.1 1.775 0.1 2.739 0 20.807-16.868 37.675-37.675 37.675s-37.675-16.868-37.675-37.675c0-0.964 0.036-1.919 0.107-2.865l-0.008 0.126c0-143.889 116.645-260.535 260.535-260.535s260.535 116.645 260.535 260.535v0c0 20.807-16.868 37.675-37.675 37.675v0z"></path>
<path d="M146.216 1024.009c-0.102 0-0.224 0-0.345 0-35.133 0-66.938-14.246-89.955-37.276l-2.592-2.592c-23.045-23.14-37.292-55.056-37.292-90.3s14.247-67.161 37.296-90.305l-0.004 0.004 167.643-167.843c6.906-7.007 16.501-11.347 27.11-11.347 21.019 0 38.058 17.039 38.058 38.058 0 10.41-4.18 19.845-10.953 26.716l0.004-0.005-168.64 168.042c-9.384 9.499-15.181 22.561-15.181 36.977s5.796 27.478 15.186 36.982l-0.005-0.005 2.591 2.791c9.51 9.443 22.612 15.279 37.077 15.279s27.567-5.836 37.080-15.282l-0.003 0.003 167.643-167.843c6.67-6.096 15.588-9.83 25.379-9.83 20.807 0 37.675 16.868 37.675 37.675 0 9.79-3.734 18.709-9.857 25.408l0.026-0.029-167.643 167.444c-23.017 23.031-54.823 37.277-89.955 37.277-0.121 0-0.242 0-0.363-0.001h0.019z"></path>
</svg>
