<!-- Generated by IcoMoon.io -->
<svg version="1.1" xmlns="http://www.w3.org/2000/svg" width="1024" height="1024" viewBox="0 0 1024 1024">
<title></title>
<g id="icomoon-ignore">
</g>
<path d="M1001.738 378.432h-979.477c-12.288 0-22.262 9.974-22.262 22.262s9.974 22.262 22.262 22.262h979.477c12.288 0 22.262-9.974 22.262-22.262s-9.974-22.262-22.262-22.262z"></path>
<path d="M963.048 379.233c-11.754-3.206-24.131 3.74-27.337 15.627l-115.667 424.113c-7.88 28.94-34.37 49.196-64.422 49.196h-487.246c-30.052 0-56.542-20.258-64.468-49.196l-115.665-424.113c-3.206-11.931-15.494-18.833-27.291-15.671-11.887 3.249-18.877 15.494-15.627 27.337l115.667 424.159c13.179 48.307 57.299 82.009 107.386 82.009h487.246c50.087 0 94.207-33.702 107.386-82.009l115.667-424.113c3.249-11.846-3.742-24.088-15.629-27.339z"></path>
<path d="M479.81 115.041c-10.285-6.812-24.086-4.007-30.854 6.188l-178.086 267.13c-6.812 10.241-4.051 24.042 6.188 30.854 3.83 2.538 8.104 3.74 12.332 3.74 7.169 0 14.248-3.473 18.522-9.928l178.086-267.13c6.814-10.239 4.053-24.042-6.188-30.854z"></path>
<path d="M753.084 388.361l-178.086-267.13c-6.812-10.241-20.613-13-30.854-6.188s-13 20.613-6.188 30.854l178.086 267.13c4.318 6.455 11.353 9.928 18.566 9.928 4.274 0 8.548-1.202 12.288-3.74 10.241-6.812 13-20.615 6.188-30.854z"></path>
<path d="M511.999 467.476c-12.288 0-22.262 9.974-22.262 22.262v311.651c0 12.288 9.974 22.262 22.262 22.262s22.262-9.974 22.262-22.262v-311.651c0-12.288-9.974-22.262-22.262-22.262z"></path>
<path d="M670.987 467.699c-12.111-1.693-23.464 6.722-25.2 18.877l-44.521 311.651c-1.736 12.198 6.722 23.464 18.877 25.2 1.069 0.177 2.137 0.223 3.162 0.223 10.952 0 20.435-8.014 22.038-19.1l44.521-311.653c1.736-12.198-6.722-23.462-18.877-25.198z"></path>
<path d="M422.734 798.227l-44.521-311.651c-1.736-12.198-12.956-20.746-25.2-18.877-12.154 1.736-20.613 13.046-18.877 25.2l44.521 311.651c1.603 11.086 11.13 19.1 22.038 19.1 1.025 0 2.093-0.090 3.162-0.223 12.154-1.736 20.613-13.046 18.877-25.2z"></path>
<path d="M829.707 468.321c-11.664-3.249-24.131 3.473-27.514 15.316l-89.044 311.651c-3.339 11.798 3.473 24.131 15.316 27.514 2.047 0.578 4.097 0.845 6.144 0.845 9.706 0 18.609-6.367 21.37-16.161l89.044-311.651c3.339-11.798-3.473-24.129-15.316-27.514z"></path>
<path d="M310.85 795.289l-89.044-311.651c-3.383-11.843-15.805-18.522-27.514-15.316-11.843 3.383-18.699 15.717-15.316 27.514l89.044 311.651c2.805 9.794 11.71 16.161 21.37 16.161 2.003 0 4.051-0.267 6.144-0.845 11.843-3.383 18.701-15.715 15.316-27.514z"></path>
</svg>
