<!-- Generated by IcoMoon.io -->
<svg version="1.1" xmlns="http://www.w3.org/2000/svg" width="1262" height="1024" viewBox="0 0 1262 1024">
<title></title>
<g id="icomoon-ignore">
</g>
<path d="M1083.792 736.732h-694.252c-18.038 0-33.877-11.659-39.376-28.597l-190.061-583.603-117.029-43.996c-21.338-8.139-32.337-32.117-24.198-53.675 8.139-21.338 32.117-32.337 53.455-24.198l135.507 51.255c11.879 4.4 20.898 14.079 24.858 25.957l186.762 573.704h631.558l100.53-417.739h-789.503c-22.878 0-41.576-18.478-41.576-41.576 0-22.878 18.698-41.576 41.576-41.576h842.298c12.759 0 24.858 5.719 32.557 15.838 7.919 9.899 10.779 23.098 7.699 35.417l-120.548 500.891c-4.4 18.698-21.118 31.897-40.256 31.897z"></path>
<path d="M1029.897 486.836h-597.022c-22.878 0-41.576-18.698-41.576-41.576s18.698-41.576 41.576-41.576h597.242c22.878 0 41.576 18.478 41.576 41.576-0.22 22.878-18.698 41.576-41.796 41.576z"></path>
<path d="M444.974 1024.024c-65.554 0-118.788-53.235-118.788-118.788s53.235-118.788 118.788-118.788 118.788 53.235 118.788 118.788c0 65.554-53.235 118.788-118.788 118.788zM444.974 869.379c-19.798 0-35.856 16.058-35.856 35.856 0 19.578 16.058 35.856 35.856 35.856s35.637-16.058 35.637-35.856c0.22-19.798-15.838-35.856-35.637-35.856z"></path>
<path d="M992.281 1024.024c-65.554 0-118.788-53.235-118.788-118.788s53.235-118.788 118.788-118.788c65.554 0 118.788 53.235 118.788 118.788 0.22 65.554-53.235 118.788-118.788 118.788zM992.281 869.379c-19.798 0-35.856 16.058-35.856 35.856 0 19.578 16.058 35.856 35.856 35.856s35.856-16.058 35.856-35.856c0-19.798-16.058-35.856-35.856-35.856z"></path>
</svg>
