<!-- Generated by IcoMoon.io -->
<svg version="1.1" xmlns="http://www.w3.org/2000/svg" width="1056" height="1024" viewBox="0 0 1056 1024">
<title></title>
<g id="icomoon-ignore">
</g>
<path  d="M1007.597 743.889c-18.752 0-33.954-15.202-33.954-33.954v0-141.025c-3.068-51.111-21.793-97.329-51.393-134.503l0.373 0.484c-69.165-88.926-183.422-234.801-195.458-247.916-31.439-31.439-43.834-40.421-117.67-40.421h-460.8c-41.319 0-68.985 25.51-68.985 63.596s0 498.526 0 498.526h-67.728s0-457.746 0-498.526c-0.18-75.632 57.488-130.964 136.713-130.964h460.8c89.825 0 120.365 15.091 165.457 60.182 16.168 15.989 158.091 197.614 200.488 252.946 38.715 48.164 63.152 109.266 66.088 175.954l0.022 0.641v140.306c0.008 0.268 0.012 0.583 0.012 0.899 0 18.653-15.121 33.774-33.774 33.774-0.067 0-0.135 0-0.202-0.001h0.010z"></path>
<path  d="M45.397 765.267h54.793c15.899-64.43 73.195-111.456 141.474-111.456s125.574 47.026 141.264 110.457l0.209 1h272.528c15.899-64.43 73.195-111.456 141.474-111.456s125.574 47.026 141.264 110.457l0.209 1h68.985c0.739-0.057 1.6-0.090 2.468-0.090 18.752 0 33.954 15.202 33.954 33.954s-15.202 33.954-33.954 33.954c-0.869 0-1.729-0.033-2.582-0.097l0.113 0.007h-68.985c-15.899 64.43-73.195 111.456-141.474 111.456s-125.574-47.026-141.264-110.457l-0.209-1h-272.528c-15.767 64.612-73.151 111.818-141.56 111.818-68.15 0-125.357-46.848-141.175-110.096l-0.212-1.003h-54.793c-17.66-1.326-31.486-15.98-31.486-33.864s13.826-32.538 31.372-33.857l0.113-0.007zM797.228 876.829c40.777-0.079 74.168-31.594 77.233-71.596l0.016-0.263c-0.457-1.698-0.719-3.648-0.719-5.659s0.262-3.961 0.754-5.817l-0.036 0.158c-3.085-40.316-36.556-71.86-77.395-71.86-42.862 0-77.608 34.746-77.608 77.608s34.746 77.608 77.608 77.608c0.051 0 0.103 0 0.154 0h-0.008zM241.753 876.829c42.961 0 77.788-34.827 77.788-77.788s-34.827-77.788-77.788-77.788c-42.961 0-77.788 34.827-77.788 77.788 0 0.063 0 0.126 0 0.19v-0.010c0.204 42.843 34.931 77.507 77.778 77.608h0.010z"></path>
<path  d="M641.472 203.145v275.222h258.335c18.752 0 33.954 15.202 33.954 33.954s-15.202 33.954-33.954 33.954h-292.289c-18.752 0-33.954-15.202-33.954-33.954v0-309.176c0-18.752 15.202-33.954 33.954-33.954s33.954 15.202 33.954 33.954v0z"></path>
</svg>
