<!-- Generated by IcoMoon.io -->
<svg version="1.1" xmlns="http://www.w3.org/2000/svg" width="1056" height="1024" viewBox="0 0 1056 1024">
<title></title>
<g id="icomoon-ignore">
</g>
<path d="M527.877 0.103c0.036 0 0.080 0 0.123 0 282.713 0 511.897 229.184 511.897 511.897s-229.184 511.897-511.897 511.897c-282.713 0-511.897-229.184-511.897-511.897 0-141.377 57.313-269.369 149.972-362.007l0.001-0.001c92.553-92.607 220.441-149.889 361.709-149.889 0.032 0 0.065 0 0.097 0h-0.005zM861.457 178.419c-85.364-85.301-203.26-138.056-333.477-138.056-260.562 0-471.788 211.227-471.788 471.788s211.227 471.788 471.788 471.788c260.506 0 471.698-211.137 471.788-471.622v-0.009c0.001-0.288 0.001-0.63 0.001-0.972 0-130.088-52.871-247.827-138.296-332.902l-0.016-0.016z"></path>
<path d="M789.2 352.704c-18.033 7.889-38.964 13.768-60.846 16.621l-1.177 0.125c22.227-13.17 38.971-33.6 47.127-57.965l0.218-0.75c-19.682 11.72-42.571 20.684-66.925 25.606l-1.404 0.237c-19.68-20.933-47.551-33.97-78.467-33.97-58.981 0-106.88 47.452-107.602 106.262l-0.001 0.068c0.18 8.632 1.301 16.912 3.263 24.861l-0.162-0.775c-88.827-4.503-167.043-46.427-219.77-110.199l-0.411-0.512c-9.028 15.194-14.452 33.455-14.678 52.965l-0.001 0.065c0.175 36.685 19.095 68.914 47.667 87.619l0.401 0.247c-17.846-0.348-34.501-5.134-49.004-13.295l0.522 0.27v1.447c-0.004 0.315-0.006 0.688-0.006 1.060 0 13.287 2.622 25.962 7.378 37.535l-0.239-0.658c13.626 33.393 42.694 57.984 78.084 65.112l0.685 0.115c-8.479 2.448-18.224 3.879-28.297 3.928h-0.027c-7.157-0.023-14.108-0.85-20.785-2.397l0.627 0.122c14.386 42.583 53.414 72.935 99.708 74.218l0.149 0.003c-36.233 28.115-82.349 45.071-132.426 45.071-0.179 0-0.359 0-0.538-0.001h0.028c-8.787 0-16.953-0.62-25.74-1.447 46.617 29.695 103.428 47.332 164.358 47.344h0.003c167.566 0 270.937-115.88 297.917-236.411 4.453-19.13 7.013-41.1 7.029-63.666v-14.173c20.914-15.191 38.593-33.297 52.856-53.944l0.483-0.74z"></path>
</svg>
