<!-- Generated by IcoMoon.io -->
<svg version="1.1" xmlns="http://www.w3.org/2000/svg" width="962" height="1024" viewBox="0 0 962 1024">
<title></title>
<g id="icomoon-ignore">
</g>
<path d="M399.949 509.27c18.074 7.907 38.972-0.377 46.879-18.262s-0.377-38.972-18.262-46.879c-104.302-45.75-141.202-154.381-123.693-237.785 17.697-84.533 82.839-134.99 174.15-134.99 58.552 0 104.113 19.204 135.743 56.858 38.031 45.75 47.256 109.573 39.348 152.875-17.886 97.712-83.592 176.032-206.909 246.634-17.133 9.79-22.969 31.441-13.179 48.574 6.589 11.484 18.639 17.886 30.876 17.886 6.025 0 12.049-1.506 17.697-4.707 89.993-51.398 212.933-138.002 241.739-295.584 9.978-55.163 1.694-143.462-54.598-211.051-31.818-38.031-90.37-82.839-190.717-82.839-150.051 0-224.229 99.030-243.621 191.659-23.534 111.456 25.416 256.424 164.548 317.611z"></path>
<path d="M916.185 662.898c-40.101-104.678-212.18-170.761-231.76-177.915-17.509-6.589-36.901 1.694-44.62 18.45-35.018 76.061-94.511 121.434-159.465 121.434-64.577 0-121.999-44.243-157.394-121.434-7.719-16.756-27.299-25.040-44.62-18.45-19.58 7.154-191.659 73.237-231.76 177.727-25.040 65.33-23.91 135.178-22.781 196.742 0.188 11.296 0.377 22.404 0.377 32.947 0 19.58 16.003 35.583 35.583 35.583s35.583-16.003 35.583-35.583c0-10.92-0.188-22.404-0.377-34.265-0.941-55.163-2.071-117.669 18.074-170.008 20.145-52.527 106.561-100.348 160.971-124.635 48.574 83.592 123.693 132.542 206.344 132.542 0 0 0 0 0 0 83.78 0 159.653-48.95 208.227-132.542 54.41 24.287 141.014 72.107 160.971 124.823 15.438 40.101 23.722 129.341 25.040 264.519h-823.116c-19.58 0-35.583 16.003-35.583 35.583s16.003 35.583 35.583 35.583h859.076c19.58 0 35.583-16.003 35.583-35.583-0.188-106.184-3.201-255.671-29.935-325.519z"></path>
</svg>
