<!-- Generated by IcoMoon.io -->
<svg version="1.1" xmlns="http://www.w3.org/2000/svg" width="1056" height="1024" viewBox="0 0 1056 1024">
<title></title>
<g id="icomoon-ignore">
</g>
<path d="M890.038 149.96c-96.704-96.702-225.278-149.96-362.038-149.96-136.762 0-265.338 53.258-362.040 149.96-96.704 96.704-149.96 225.28-149.96 362.040s53.256 265.334 149.96 362.038c96.704 96.704 225.278 149.962 362.040 149.962 136.76 0 265.334-53.258 362.038-149.962s149.962-225.278 149.962-362.038-53.258-265.334-149.962-362.040zM528 964c-249.234 0-452-202.766-452-452s202.766-452 452-452 452 202.766 452 452-202.766 452-452 452z"></path>
<path d="M772.61 347.718c-11.714-11.712-30.71-11.712-42.424 0.002l-264.918 264.918-139.454-139.454c-11.714-11.714-30.71-11.714-42.426 0s-11.716 30.71 0 42.426l160.666 160.666c5.858 5.858 13.536 8.786 21.212 8.786s15.356-2.93 21.212-8.786l286.132-286.132c11.716-11.714 11.716-30.71 0-42.426z"></path>
</svg>
