<!-- Generated by IcoMoon.io -->
<svg version="1.1" xmlns="http://www.w3.org/2000/svg" width="1056" height="1024" viewBox="0 0 1056 1024">
<title></title>
<g id="icomoon-ignore">
</g>
<path d="M529.649 719.902c-200.643 0-363.297-162.654-363.297-363.297s162.654-363.297 363.297-363.297c200.644 0 363.297 162.654 363.297 363.297 0 0.157 0 0.313 0 0.469v-0.024c-0.253 200.452-162.81 362.852-363.297 362.852v0zM529.649 38.274c-176.055 0-318.776 142.721-318.776 318.776s142.721 318.776 318.776 318.776c176.055 0 318.776-142.721 318.776-318.776v0c0-176.055-142.721-318.776-318.776-318.776v0z"></path>
<path d="M529.649 578.768c-122.943 0-222.609-99.665-222.609-222.609s99.665-222.609 222.609-222.609c122.943 0 222.609 99.665 222.609 222.609v0c0 122.943-99.665 222.609-222.609 222.609v0zM529.649 178.072c-98.355 0-178.087 79.732-178.087 178.087s79.732 178.087 178.087 178.087c98.355 0 178.087-79.732 178.087-178.087v0c-0.757-97.779-80.197-176.751-178.082-176.751-0.002 0-0.003 0-0.005 0v0z"></path>
<path d="M337.76 1030.663c-0.006 0-0.014 0-0.021 0-7.712 0-14.525-3.844-18.629-9.721l-0.049-0.074-75.242-115.311-137.572-3.117c-8.025-0.023-15.008-4.465-18.643-11.021l-0.056-0.109c-1.796-3.139-2.856-6.9-2.856-10.908s1.059-7.769 2.913-11.017l-0.058 0.109 163.395-296.96c3.907-6.919 11.212-11.514 19.59-11.514 12.383 0 22.422 10.039 22.422 22.422 0 4.005-1.050 7.765-2.89 11.020l0.058-0.112-146.031 262.678 112.64 2.671c7.401 0.22 13.869 4.019 17.759 9.718l0.049 0.077 61.885 94.386 145.586-263.123c4.025-6.722 11.269-11.153 19.547-11.153 3.928 0 7.624 0.998 10.847 2.753l-0.119-0.059c6.99 3.846 11.648 11.163 11.648 19.568 0 3.927-1.017 7.617-2.802 10.82l0.058-0.113-163.84 295.179c-3.823 6.54-10.727 10.915-18.669 11.13l-0.030 0.001z"></path>
<path d="M717.086 1030.663v0c-7.972-0.216-14.876-4.591-18.642-11.025l-0.057-0.105-163.84-295.179c-1.782-3.143-2.832-6.903-2.832-10.908 0-12.383 10.039-22.422 22.422-22.422 8.378 0 15.683 4.595 19.531 11.402l0.058 0.112 146.031 263.123 61.44-94.386c4.023-5.893 10.684-9.728 18.244-9.795h0.010l112.195-2.671-145.586-262.678c-1.895-3.167-3.015-6.986-3.015-11.066 0-8.26 4.591-15.448 11.36-19.152l0.114-0.057c3.104-1.696 6.799-2.694 10.728-2.694 8.279 0 15.523 4.431 19.49 11.050l0.057 0.103 163.84 295.179c1.684 3.165 2.672 6.921 2.672 10.908s-0.989 7.743-2.734 11.036l0.062-0.128c-3.898 6.663-11 11.080-19.137 11.13h-0.007l-137.572 3.117-75.242 115.311c-4.056 5.96-10.808 9.823-18.462 9.823-0.397 0-0.791-0.010-1.182-0.031l0.055 0.002z"></path>
</svg>
