<!-- Generated by IcoMoon.io -->
<svg version="1.1" xmlns="http://www.w3.org/2000/svg" width="1056" height="1024" viewBox="0 0 1056 1024">
<title></title>
<g id="icomoon-ignore">
</g>
<path d="M528 1024c-282.32 0-512-229.68-512-512s229.68-512 512-512 512 229.68 512 512-229.68 512-512 512zM528 73.141c-241.984 0-438.859 196.875-438.859 438.859s196.875 438.859 438.859 438.859 438.859-196.875 438.859-438.859-196.875-438.859-438.859-438.859z"></path>
<path d="M710.859 731.43c-9.359 0-18.719-3.57-25.859-10.719l-365.711-365.711c-14.289-14.289-14.289-37.43 0-51.711 14.281-14.281 37.43-14.289 51.711 0l365.711 365.711c14.289 14.289 14.289 37.43 0 51.711-7.141 7.148-16.492 10.719-25.852 10.719z"></path>
<path d="M345.141 731.43c-9.359 0-18.711-3.57-25.852-10.719-14.289-14.281-14.289-37.43 0-51.711l365.711-365.711c14.289-14.289 37.43-14.289 51.711 0 14.281 14.281 14.289 37.43 0 51.711l-365.711 365.711c-7.141 7.148-16.5 10.719-25.859 10.719z"></path>
</svg>
